<?xml version="1.0" standalone="no"?><!DOCTYPE svg PUBLIC "-//W3C//DTD SVG 1.1//EN" "http://www.w3.org/Graphics/SVG/1.1/DTD/svg11.dtd"><svg xmlns:xlink="http://www.w3.org/1999/xlink" version="1.1" class="highcharts-root" style="font-family:'lucida grande', 'lucida sans unicode', arial, helvetica, sans-serif;font-size:12px;" xmlns="http://www.w3.org/2000/svg" width="1428" height="738" viewBox="0 0 1428 738"><desc>Created with Highstock 6.1.0</desc><defs><linearGradient x1="0" x2="0" y1="1" y2="1" id="highcharts-j0jn192-67"><stop offset="0" stop-color="rgb(64,48,117)" stop-opacity="0.4"></stop><stop offset="1" stop-color="rgb(64,48,117)" stop-opacity="0.2"></stop></linearGradient><linearGradient x1="0" x2="0" y1="1" y2="1" id="highcharts-j0jn192-68"><stop offset="0" stop-color="rgb(242,133,7)" stop-opacity="0.4"></stop><stop offset="1" stop-color="rgb(242,133,7)" stop-opacity="0.2"></stop></linearGradient><linearGradient x1="100%" x2="40%" y1="100%" y2="95%" id="highcharts-j0jn192-69"><stop offset="0" stop-color="rgb(69,114,167)" stop-opacity="0.78"></stop><stop offset="1" stop-color="rgb(255,255,255)" stop-opacity="0.6"></stop></linearGradient><linearGradient x1="100%" x2="40%" y1="100%" y2="95%" id="highcharts-j0jn192-70"><stop offset="0" stop-color="rgb(10,110,10)" stop-opacity="0.78"></stop><stop offset="1" stop-color="rgb(255,255,255)" stop-opacity="0.6"></stop></linearGradient><clipPath id="highcharts-j0jn192-71"><rect x="0" y="0" width="1278" height="646" fill="none"></rect></clipPath><linearGradient x1="0%" x2="0%" y1="0%" y2="100%" id="highcharts-j0jn192-72"><stop offset="0" stop-color="rgb(140,20,20)" stop-opacity="0.8"></stop><stop offset="1" stop-color="rgb(255,255,255)" stop-opacity="0.8"></stop></linearGradient><clipPath id="highcharts-j0jn192-73"><rect x="0" y="0" width="1278" height="646" fill="none"></rect></clipPath><clipPath id="highcharts-j0jn192-74"><rect x="0" y="0" width="1278" height="646" fill="none"></rect></clipPath><clipPath id="highcharts-j0jn192-75"><rect x="0" y="0" width="1278" height="646" fill="none"></rect></clipPath><clipPath id="highcharts-j0jn192-76"><rect x="0" y="0" width="1278" height="24" fill="none"></rect></clipPath></defs><rect fill="#ffffff" class="highcharts-background" x="0" y="0" width="1428" height="738" rx="0" ry="0"></rect><rect fill="none" class="highcharts-plot-background" x="35" y="45" width="1278" height="646"></rect><g class="highcharts-grid highcharts-xaxis-grid "><path fill="none" class="highcharts-grid-line" d="M 246.5 45 L 246.5 691" opacity="1"></path><path fill="none" class="highcharts-grid-line" d="M 732.5 45 L 732.5 691" opacity="1"></path><path fill="none" class="highcharts-grid-line" d="M 1218.5 45 L 1218.5 691" opacity="1"></path><path fill="none" opacity="1" class="highcharts-grid-line" d="M 84.5 45 L 84.5 691"></path><path fill="none" opacity="1" class="highcharts-grid-line" d="M 165.5 45 L 165.5 691"></path><path fill="none" opacity="1" class="highcharts-grid-line" d="M 327.5 45 L 327.5 691"></path><path fill="none" opacity="1" class="highcharts-grid-line" d="M 408.5 45 L 408.5 691"></path><path fill="none" opacity="1" class="highcharts-grid-line" d="M 489.5 45 L 489.5 691"></path><path fill="none" opacity="1" class="highcharts-grid-line" d="M 570.5 45 L 570.5 691"></path><path fill="none" opacity="1" class="highcharts-grid-line" d="M 651.5 45 L 651.5 691"></path><path fill="none" opacity="1" class="highcharts-grid-line" d="M 813.5 45 L 813.5 691"></path><path fill="none" opacity="1" class="highcharts-grid-line" d="M 894.5 45 L 894.5 691"></path><path fill="none" opacity="1" class="highcharts-grid-line" d="M 975.5 45 L 975.5 691"></path><path fill="none" opacity="1" class="highcharts-grid-line" d="M 1056.5 45 L 1056.5 691"></path><path fill="none" opacity="1" class="highcharts-grid-line" d="M 1137.5 45 L 1137.5 691"></path><path fill="none" opacity="1" class="highcharts-grid-line" d="M 1299.5 45 L 1299.5 691"></path></g><g class="highcharts-grid highcharts-xaxis-grid highcharts-navigator-xaxis"><path fill="none" stroke="#e6e6e6" stroke-width="1" class="highcharts-grid-line" d="M 239.5 714 L 239.5 738" opacity="1"></path><path fill="none" stroke="#e6e6e6" stroke-width="1" class="highcharts-grid-line" d="M 497.5 714 L 497.5 738" opacity="1"></path><path fill="none" stroke="#e6e6e6" stroke-width="1" class="highcharts-grid-line" d="M 754.5 714 L 754.5 738" opacity="1"></path><path fill="none" stroke="#e6e6e6" stroke-width="1" class="highcharts-grid-line" d="M 1011.5 714 L 1011.5 738" opacity="1"></path><path fill="none" stroke="#e6e6e6" stroke-width="1" class="highcharts-grid-line" d="M 1269.5 714 L 1269.5 738" opacity="1"></path></g><g class="highcharts-grid highcharts-yaxis-grid "><path fill="none" stroke="#e6e6e6" stroke-width="1" class="highcharts-grid-line" d="M 35 691.5 L 1313 691.5" opacity="1"></path><path fill="none" stroke="#e6e6e6" stroke-width="1" class="highcharts-grid-line" d="M 35 632.5 L 1313 632.5" opacity="1"></path><path fill="none" stroke="#e6e6e6" stroke-width="1" class="highcharts-grid-line" d="M 35 574.5 L 1313 574.5" opacity="1"></path><path fill="none" stroke="#e6e6e6" stroke-width="1" class="highcharts-grid-line" d="M 35 515.5 L 1313 515.5" opacity="1"></path><path fill="none" stroke="#e6e6e6" stroke-width="1" class="highcharts-grid-line" d="M 35 456.5 L 1313 456.5" opacity="1"></path><path fill="none" stroke="#e6e6e6" stroke-width="1" class="highcharts-grid-line" d="M 35 397.5 L 1313 397.5" opacity="1"></path><path fill="none" stroke="#e6e6e6" stroke-width="1" class="highcharts-grid-line" d="M 35 339.5 L 1313 339.5" opacity="1"></path><path fill="none" stroke="#e6e6e6" stroke-width="1" class="highcharts-grid-line" d="M 35 280.5 L 1313 280.5" opacity="1"></path><path fill="none" stroke="#e6e6e6" stroke-width="1" class="highcharts-grid-line" d="M 35 221.5 L 1313 221.5" opacity="1"></path><path fill="none" stroke="#e6e6e6" stroke-width="1" class="highcharts-grid-line" d="M 35 162.5 L 1313 162.5" opacity="1"></path><path fill="none" stroke="#e6e6e6" stroke-width="1" class="highcharts-grid-line" d="M 35 104.5 L 1313 104.5" opacity="1"></path><path fill="none" stroke="#e6e6e6" stroke-width="1" class="highcharts-grid-line" d="M 35 44.5 L 1313 44.5" opacity="1"></path></g><g class="highcharts-grid highcharts-yaxis-grid "><path fill="none" class="highcharts-grid-line" d="M 35 691.5 L 1313 691.5" opacity="1"></path><path fill="none" class="highcharts-grid-line" d="M 35 645.5 L 1313 645.5" opacity="1"></path><path fill="none" class="highcharts-grid-line" d="M 35 599.5 L 1313 599.5" opacity="1"></path><path fill="none" class="highcharts-grid-line" d="M 35 553.5 L 1313 553.5" opacity="1"></path><path fill="none" class="highcharts-grid-line" d="M 35 506.5 L 1313 506.5" opacity="1"></path><path fill="none" class="highcharts-grid-line" d="M 35 460.5 L 1313 460.5" opacity="1"></path><path fill="none" class="highcharts-grid-line" d="M 35 414.5 L 1313 414.5" opacity="1"></path><path fill="none" class="highcharts-grid-line" d="M 35 368.5 L 1313 368.5" opacity="1"></path><path fill="none" class="highcharts-grid-line" d="M 35 322.5 L 1313 322.5" opacity="1"></path><path fill="none" class="highcharts-grid-line" d="M 35 276.5 L 1313 276.5" opacity="1"></path><path fill="none" class="highcharts-grid-line" d="M 35 230.5 L 1313 230.5" opacity="1"></path><path fill="none" class="highcharts-grid-line" d="M 35 183.5 L 1313 183.5" opacity="1"></path><path fill="none" class="highcharts-grid-line" d="M 35 137.5 L 1313 137.5" opacity="1"></path><path fill="none" class="highcharts-grid-line" d="M 35 91.5 L 1313 91.5" opacity="1"></path><path fill="none" class="highcharts-grid-line" d="M 35 45.5 L 1313 45.5" opacity="1"></path></g><g class="highcharts-grid highcharts-yaxis-grid "><path fill="none" class="highcharts-grid-line" d="M 35 691.5 L 1313 691.5" opacity="1"></path><path fill="none" class="highcharts-grid-line" d="M 35 619.5 L 1313 619.5" opacity="1"></path><path fill="none" class="highcharts-grid-line" d="M 35 547.5 L 1313 547.5" opacity="1"></path><path fill="none" class="highcharts-grid-line" d="M 35 476.5 L 1313 476.5" opacity="1"></path><path fill="none" class="highcharts-grid-line" d="M 35 404.5 L 1313 404.5" opacity="1"></path><path fill="none" class="highcharts-grid-line" d="M 35 332.5 L 1313 332.5" opacity="1"></path><path fill="none" class="highcharts-grid-line" d="M 35 260.5 L 1313 260.5" opacity="1"></path><path fill="none" class="highcharts-grid-line" d="M 35 189.5 L 1313 189.5" opacity="1"></path><path fill="none" class="highcharts-grid-line" d="M 35 117.5 L 1313 117.5" opacity="1"></path><path fill="none" class="highcharts-grid-line" d="M 35 45.5 L 1313 45.5" opacity="1"></path></g><g class="highcharts-grid highcharts-yaxis-grid highcharts-navigator-yaxis"><path fill="none" class="highcharts-grid-line" d="M 35 738.5 L 1313 738.5" opacity="1"></path><path fill="none" class="highcharts-grid-line" d="M 35 716.5 L 1313 716.5" opacity="1"></path></g><rect fill="none" class="highcharts-plot-border" x="35" y="45" width="1278" height="646"></rect><g class="highcharts-axis highcharts-xaxis "><path fill="none" class="highcharts-tick" stroke="#ccd6eb" stroke-width="1" d="M 246.5 691 L 246.5 701" opacity="1"></path><path fill="none" class="highcharts-tick" stroke="#ccd6eb" stroke-width="1" d="M 732.5 691 L 732.5 701" opacity="1"></path><path fill="none" class="highcharts-tick" stroke="#ccd6eb" stroke-width="1" d="M 1218.5 691 L 1218.5 701" opacity="1"></path><path fill="none" class="highcharts-tick" stroke="#ccd6eb" stroke-width="1" d="M 84.5 691 L 84.5 701" opacity="1"></path><path fill="none" class="highcharts-tick" stroke="#ccd6eb" stroke-width="1" d="M 165.5 691 L 165.5 701" opacity="1"></path><path fill="none" class="highcharts-tick" stroke="#ccd6eb" stroke-width="1" d="M 327.5 691 L 327.5 701" opacity="1"></path><path fill="none" class="highcharts-tick" stroke="#ccd6eb" stroke-width="1" d="M 408.5 691 L 408.5 701" opacity="1"></path><path fill="none" class="highcharts-tick" stroke="#ccd6eb" stroke-width="1" d="M 489.5 691 L 489.5 701" opacity="1"></path><path fill="none" class="highcharts-tick" stroke="#ccd6eb" stroke-width="1" d="M 570.5 691 L 570.5 701" opacity="1"></path><path fill="none" class="highcharts-tick" stroke="#ccd6eb" stroke-width="1" d="M 651.5 691 L 651.5 701" opacity="1"></path><path fill="none" class="highcharts-tick" stroke="#ccd6eb" stroke-width="1" d="M 813.5 691 L 813.5 701" opacity="1"></path><path fill="none" class="highcharts-tick" stroke="#ccd6eb" stroke-width="1" d="M 894.5 691 L 894.5 701" opacity="1"></path><path fill="none" class="highcharts-tick" stroke="#ccd6eb" stroke-width="1" d="M 975.5 691 L 975.5 701" opacity="1"></path><path fill="none" class="highcharts-tick" stroke="#ccd6eb" stroke-width="1" d="M 1056.5 691 L 1056.5 701" opacity="1"></path><path fill="none" class="highcharts-tick" stroke="#ccd6eb" stroke-width="1" d="M 1137.5 691 L 1137.5 701" opacity="1"></path><path fill="none" class="highcharts-tick" stroke="#ccd6eb" stroke-width="1" d="M 1299.5 691 L 1299.5 701" opacity="1"></path><path fill="none" class="highcharts-axis-line" stroke="#ccd6eb" stroke-width="1" d="M 35 691.5 L 1313 691.5"></path></g><g class="highcharts-axis highcharts-xaxis highcharts-navigator-xaxis"><path fill="none" class="highcharts-axis-line" d="M 35 738 L 1313 738"></path></g><g class="highcharts-axis highcharts-yaxis "><text x="25" text-anchor="middle" transform="translate(0,0) rotate(270 25 368)" class="highcharts-axis-title" style="color:#aa4643;fill:#aa4643;" y="368"><tspan>CPU Usage</tspan></text><path fill="none" class="highcharts-axis-line" d="M 35 45 L 35 691"></path></g><g class="highcharts-axis highcharts-yaxis "><text x="1323" text-anchor="middle" transform="translate(0,0) rotate(90 1323 368)" class="highcharts-axis-title" style="color:#f28507;fill:#f28507;" y="368"><tspan>Memory</tspan></text><path fill="none" class="highcharts-axis-line" d="M 1313 45 L 1313 691"></path></g><g class="highcharts-axis highcharts-yaxis "><text x="1403" text-anchor="middle" transform="translate(0,0) rotate(90 1403 368)" class="highcharts-axis-title" style="color:#4572a7;fill:#4572a7;" y="368"><tspan>Filesystem Size / IO Throughput</tspan></text><path fill="none" class="highcharts-axis-line" d="M 1393 45 L 1393 691"></path></g><g class="highcharts-axis highcharts-yaxis highcharts-navigator-yaxis"><path fill="none" class="highcharts-axis-line" d="M 35 714 L 35 738"></path></g><g class="highcharts-series-group"><g class="highcharts-series highcharts-series-0 highcharts-areaspline-series " transform="translate(35,45) scale(1 1)" clip-path="url(#highcharts-j0jn192-73)"><path fill="url(#highcharts-j0jn192-72)" d="M -78.26189889145 646 C -78.26189889145 646 -78.26189889145 646 -78.26189889145 646 C -78.26189889145 646 -58.8135093927202 646 -45.847916393567 646 C -32.8823233944138 646 -26.399526894837198 646 -13.433933895684 646 C -0.4618581000311991 646 6.024179797795202 646 18.996255593448 646 C 31.9618485926012 646 38.4446450921778 646 51.410238091331 646 C 64.3823138869838 646 70.8683517848102 646 83.840427580463 646 C 96.80602057961781 646 103.2888170791952 646 116.25441007835 646 C 129.22000307750199 646 135.702799577078 117.45454545454538 148.66839257623 117.45454545454538 C 161.63398557538198 117.45454545454538 168.11678207495797 179.14460248574372 181.08237507411 284.8272727272727 C 194.05445086976198 390.5627843039256 200.54048876758802 646 213.51256456324 646 C 226.478157562396 646 232.960954061974 646 245.92654706113 646 C 258.89214006028203 646 265.374936559858 646 278.34052955901 646 C 291.377433319658 646 297.895885199982 646 310.93278896063 646 C 323.898381959782 646 330.381178459358 646 343.34677145851 646 C 356.312364457666 646 362.7951609572439 646 375.7607539564 646 C 388.732829752052 646 395.218867649878 646 408.19094344553 646 C 421.15653644468205 646 427.63933294425806 646 440.60492594341 646 C 453.570518942566 646 460.053315442144 646 473.0189084413 646 C 485.99098423695204 646 492.47702213477805 646 505.44909793043 646 C 518.414690929582 646 524.897487429158 646 537.86308042831 646 C 550.8286734274619 646 557.3114699270379 646 570.27706292619 646 C 583.242655925346 646 589.725452424924 193.50636363636363 602.69104542408 126.26363636363635 C 615.6631212197319 59.02090909090907 622.1491591175579 59.02090909090907 635.12123491321 59.02090909090907 C 648.086827912362 59.02090909090907 654.569624411938 61.66363636363633 667.53521741109 61.66363636363633 C 680.500810410246 61.66363636363633 686.983606909824 58.72727272727275 699.94919990898 58.72727272727275 C 712.914792908132 58.72727272727275 719.3975894077081 59.84354593169891 732.36318240686 61.66363636363633 C 745.335258202512 63.48463684078978 751.821296100338 67.82999999999993 764.79337189599 67.82999999999993 C 777.758964895142 67.82999999999993 784.241761394718 58.72727272727275 797.20735439387 58.72727272727275 C 810.172947393026 58.72727272727275 816.655743892604 58.72727272727275 829.62133689176 61.66363636363633 C 842.638792262908 64.59999999999991 849.1475199484821 89.94864799655385 862.16497531963 102.30290909090911 C 875.1370511152821 114.61410254200837 881.6230890131079 123.32727272727266 894.59516480876 123.32727272727266 C 907.5607578079159 123.32727272727266 914.043554307494 64.59999999999991 927.00914730665 61.66363636363633 C 939.974740305802 58.72727272727275 946.457536805378 59.90181818181821 959.42312980453 58.72727272727275 C 972.388722803682 57.552727272727296 978.871519303258 55.790909090909054 991.83711230241 55.790909090909054 C 1004.8091880980461 55.790909090909054 1011.295225995864 59.02090909090907 1024.2673017915 59.02090909090907 C 1037.23289479066 59.02090909090907 1043.7156912902399 58.72727272727275 1056.6812842894 58.72727272727275 C 1069.64687728856 58.72727272727275 1076.12967378814 61.66363636363633 1089.0952667873 61.66363636363633 C 1102.06085978646 61.66363636363633 1108.54365628604 58.72727272727275 1121.5092492852 58.72727272727275 C 1134.47484228436 58.72727272727275 1140.95763878394 487.4363636363637 1153.9232317831 566.7181818181818 C 1166.89530757874 646 1173.38134547656 646 1186.3534212722 646 C 1199.31901427136 646 1205.80181077094 646 1218.7674037701 646 C 1231.7394795657399 646 1238.22551746356 646 1251.1975932592 646 C 1264.16318625836 646 1270.64598275794 646 1283.6115757571 646 C 1296.5771687562599 646 1303.05996525584 646 1316.025558255 646 C 1328.99763405064 646 1335.48367194846 646 1348.4557477441 646 C 1361.42134074326 646 1367.90413724284 646 1380.869730242 646 C 1393.8353232411598 646 1400.31811974074 646 1413.2837127399 646 C 1426.27523692506 646 1432.7709990176397 646 1445.7625232028 646 C 1458.7345989984399 646 1465.22063689626 643.0636363636364 1478.1927126919 643.0636363636364 C 1491.16478848754 643.0636363636364 1497.65082638536 646 1510.622902181 646 C 1523.58849518016 646 1530.07129167974 646 1543.0368846789 646 C 1556.00247767806 646 1562.4852741776401 646 1575.4508671768 646 C 1588.42294297244 646 1594.90898087026 646 1607.8810566659 646 C 1620.84664966506 646 1627.3294461646399 646 1640.2950391638 646 C 1653.2606321629598 646 1659.74342866254 646 1672.7090216617 646 C 1685.68109745734 646 1692.1671353551599 646 1705.1392111508 646 C 1718.1048041499598 646 1724.58760064954 646 1737.5531936487 646 C 1750.52526944434 646 1757.0113073421599 646 1769.9833831378 646 C 1782.94897613696 646 1789.43177263654 646 1802.3973656357 646 C 1815.3629586348602 646 1834.8113481336 646 1834.8113481336 646 L 1834.8113481336 646 C 1834.8113481336 646 1815.3629586348602 646 1802.3973656357 646 C 1789.43177263654 646 1782.94897613696 646 1769.9833831378 646 C 1757.0113073421599 646 1750.52526944434 646 1737.5531936487 646 C 1724.58760064954 646 1718.1048041499598 646 1705.1392111508 646 C 1692.1671353551599 646 1685.68109745734 646 1672.7090216617 646 C 1659.74342866254 646 1653.2606321629598 646 1640.2950391638 646 C 1627.3294461646399 646 1620.84664966506 646 1607.8810566659 646 C 1594.90898087026 646 1588.42294297244 646 1575.4508671768 646 C 1562.4852741776401 646 1556.00247767806 646 1543.0368846789 646 C 1530.07129167974 646 1523.58849518016 646 1510.622902181 646 C 1497.65082638536 646 1491.16478848754 646 1478.1927126919 646 C 1465.22063689626 646 1458.7345989984399 646 1445.7625232028 646 C 1432.7709990176397 646 1426.27523692506 646 1413.2837127399 646 C 1400.31811974074 646 1393.8353232411598 646 1380.869730242 646 C 1367.90413724284 646 1361.42134074326 646 1348.4557477441 646 C 1335.48367194846 646 1328.99763405064 646 1316.025558255 646 C 1303.05996525584 646 1296.5771687562599 646 1283.6115757571 646 C 1270.64598275794 646 1264.16318625836 646 1251.1975932592 646 C 1238.22551746356 646 1231.7394795657399 646 1218.7674037701 646 C 1205.80181077094 646 1199.31901427136 646 1186.3534212722 646 C 1173.38134547656 646 1166.89530757874 646 1153.9232317831 646 C 1140.95763878394 646 1134.47484228436 646 1121.5092492852 646 C 1108.54365628604 646 1102.06085978646 646 1089.0952667873 646 C 1076.12967378814 646 1069.64687728856 646 1056.6812842894 646 C 1043.7156912902399 646 1037.23289479066 646 1024.2673017915 646 C 1011.295225995864 646 1004.8091880980461 646 991.83711230241 646 C 978.871519303258 646 972.388722803682 646 959.42312980453 646 C 946.457536805378 646 939.974740305802 646 927.00914730665 646 C 914.043554307494 646 907.5607578079159 646 894.59516480876 646 C 881.6230890131079 646 875.1370511152821 646 862.16497531963 646 C 849.1475199484821 646 842.638792262908 646 829.62133689176 646 C 816.655743892604 646 810.172947393026 646 797.20735439387 646 C 784.241761394718 646 777.758964895142 646 764.79337189599 646 C 751.821296100338 646 745.335258202512 646 732.36318240686 646 C 719.3975894077081 646 712.914792908132 646 699.94919990898 646 C 686.983606909824 646 680.500810410246 646 667.53521741109 646 C 654.569624411938 646 648.086827912362 646 635.12123491321 646 C 622.1491591175579 646 615.6631212197319 646 602.69104542408 646 C 589.725452424924 646 583.242655925346 646 570.27706292619 646 C 557.3114699270379 646 550.8286734274619 646 537.86308042831 646 C 524.897487429158 646 518.414690929582 646 505.44909793043 646 C 492.47702213477805 646 485.99098423695204 646 473.0189084413 646 C 460.053315442144 646 453.570518942566 646 440.60492594341 646 C 427.63933294425806 646 421.15653644468205 646 408.19094344553 646 C 395.218867649878 646 388.732829752052 646 375.7607539564 646 C 362.7951609572439 646 356.312364457666 646 343.34677145851 646 C 330.381178459358 646 323.898381959782 646 310.93278896063 646 C 297.895885199982 646 291.377433319658 646 278.34052955901 646 C 265.374936559858 646 258.89214006028203 646 245.92654706113 646 C 232.960954061974 646 226.478157562396 646 213.51256456324 646 C 200.54048876758802 646 194.05445086976198 646 181.08237507411 646 C 168.11678207495797 646 161.63398557538198 646 148.66839257623 646 C 135.702799577078 646 129.22000307750199 646 116.25441007835 646 C 103.2888170791952 646 96.80602057961781 646 83.840427580463 646 C 70.8683517848102 646 64.3823138869838 646 51.410238091331 646 C 38.4446450921778 646 31.9618485926012 646 18.996255593448 646 C 6.024179797795202 646 -0.4618581000311991 646 -13.433933895684 646 C -26.399526894837198 646 -32.8823233944138 646 -45.847916393567 646 C -58.8135093927202 646 -78.26189889145 646 -78.26189889145 646 C -78.26189889145 646 -78.26189889145 646 -78.26189889145 646" class="highcharts-area"></path><path fill="none" d="M -78.26189889145 646 C -78.26189889145 646 -58.8135093927202 646 -45.847916393567 646 C -32.8823233944138 646 -26.399526894837198 646 -13.433933895684 646 C -0.4618581000311991 646 6.024179797795202 646 18.996255593448 646 C 31.9618485926012 646 38.4446450921778 646 51.410238091331 646 C 64.3823138869838 646 70.8683517848102 646 83.840427580463 646 C 96.80602057961781 646 103.2888170791952 646 116.25441007835 646 C 129.22000307750199 646 135.702799577078 117.45454545454538 148.66839257623 117.45454545454538 C 161.63398557538198 117.45454545454538 168.11678207495797 179.14460248574372 181.08237507411 284.8272727272727 C 194.05445086976198 390.5627843039256 200.54048876758802 646 213.51256456324 646 C 226.478157562396 646 232.960954061974 646 245.92654706113 646 C 258.89214006028203 646 265.374936559858 646 278.34052955901 646 C 291.377433319658 646 297.895885199982 646 310.93278896063 646 C 323.898381959782 646 330.381178459358 646 343.34677145851 646 C 356.312364457666 646 362.7951609572439 646 375.7607539564 646 C 388.732829752052 646 395.218867649878 646 408.19094344553 646 C 421.15653644468205 646 427.63933294425806 646 440.60492594341 646 C 453.570518942566 646 460.053315442144 646 473.0189084413 646 C 485.99098423695204 646 492.47702213477805 646 505.44909793043 646 C 518.414690929582 646 524.897487429158 646 537.86308042831 646 C 550.8286734274619 646 557.3114699270379 646 570.27706292619 646 C 583.242655925346 646 589.725452424924 193.50636363636363 602.69104542408 126.26363636363635 C 615.6631212197319 59.02090909090907 622.1491591175579 59.02090909090907 635.12123491321 59.02090909090907 C 648.086827912362 59.02090909090907 654.569624411938 61.66363636363633 667.53521741109 61.66363636363633 C 680.500810410246 61.66363636363633 686.983606909824 58.72727272727275 699.94919990898 58.72727272727275 C 712.914792908132 58.72727272727275 719.3975894077081 59.84354593169891 732.36318240686 61.66363636363633 C 745.335258202512 63.48463684078978 751.821296100338 67.82999999999993 764.79337189599 67.82999999999993 C 777.758964895142 67.82999999999993 784.241761394718 58.72727272727275 797.20735439387 58.72727272727275 C 810.172947393026 58.72727272727275 816.655743892604 58.72727272727275 829.62133689176 61.66363636363633 C 842.638792262908 64.59999999999991 849.1475199484821 89.94864799655385 862.16497531963 102.30290909090911 C 875.1370511152821 114.61410254200837 881.6230890131079 123.32727272727266 894.59516480876 123.32727272727266 C 907.5607578079159 123.32727272727266 914.043554307494 64.59999999999991 927.00914730665 61.66363636363633 C 939.974740305802 58.72727272727275 946.457536805378 59.90181818181821 959.42312980453 58.72727272727275 C 972.388722803682 57.552727272727296 978.871519303258 55.790909090909054 991.83711230241 55.790909090909054 C 1004.8091880980461 55.790909090909054 1011.295225995864 59.02090909090907 1024.2673017915 59.02090909090907 C 1037.23289479066 59.02090909090907 1043.7156912902399 58.72727272727275 1056.6812842894 58.72727272727275 C 1069.64687728856 58.72727272727275 1076.12967378814 61.66363636363633 1089.0952667873 61.66363636363633 C 1102.06085978646 61.66363636363633 1108.54365628604 58.72727272727275 1121.5092492852 58.72727272727275 C 1134.47484228436 58.72727272727275 1140.95763878394 487.4363636363637 1153.9232317831 566.7181818181818 C 1166.89530757874 646 1173.38134547656 646 1186.3534212722 646 C 1199.31901427136 646 1205.80181077094 646 1218.7674037701 646 C 1231.7394795657399 646 1238.22551746356 646 1251.1975932592 646 C 1264.16318625836 646 1270.64598275794 646 1283.6115757571 646 C 1296.5771687562599 646 1303.05996525584 646 1316.025558255 646 C 1328.99763405064 646 1335.48367194846 646 1348.4557477441 646 C 1361.42134074326 646 1367.90413724284 646 1380.869730242 646 C 1393.8353232411598 646 1400.31811974074 646 1413.2837127399 646 C 1426.27523692506 646 1432.7709990176397 646 1445.7625232028 646 C 1458.7345989984399 646 1465.22063689626 643.0636363636364 1478.1927126919 643.0636363636364 C 1491.16478848754 643.0636363636364 1497.65082638536 646 1510.622902181 646 C 1523.58849518016 646 1530.07129167974 646 1543.0368846789 646 C 1556.00247767806 646 1562.4852741776401 646 1575.4508671768 646 C 1588.42294297244 646 1594.90898087026 646 1607.8810566659 646 C 1620.84664966506 646 1627.3294461646399 646 1640.2950391638 646 C 1653.2606321629598 646 1659.74342866254 646 1672.7090216617 646 C 1685.68109745734 646 1692.1671353551599 646 1705.1392111508 646 C 1718.1048041499598 646 1724.58760064954 646 1737.5531936487 646 C 1750.52526944434 646 1757.0113073421599 646 1769.9833831378 646 C 1782.94897613696 646 1789.43177263654 646 1802.3973656357 646 C 1815.3629586348602 646 1834.8113481336 646 1834.8113481336 646" class="highcharts-graph" stroke="rgb(170,70,67)" stroke-width="2" stroke-linejoin="round" stroke-linecap="round"></path></g><g class="highcharts-markers highcharts-series-0 highcharts-areaspline-series " transform="translate(35,45) scale(1 1)" clip-path="none"></g><g class="highcharts-series highcharts-series-1 highcharts-spline-series " transform="translate(35,45) scale(1 1)" clip-path="url(#highcharts-j0jn192-74)"><path fill="none" d="M -78.26189889145 633.5414285714286 C -78.26189889145 633.5414285714286 -58.8135093927202 633.5414285714286 -45.847916393567 633.5414285714286 C -32.8823233944138 633.5414285714286 -26.399526894837198 633.5414285714286 -13.433933895684 633.5414285714286 C -0.4618581000311991 633.5414285714286 6.024179797795202 633.5414285714286 18.996255593448 633.5414285714286 C 31.9618485926012 633.5414285714286 38.4446450921778 633.5414285714286 51.410238091331 633.5414285714286 C 64.3823138869838 633.5414285714286 70.8683517848102 633.5414285714286 83.840427580463 633.5414285714286 C 96.80602057961781 633.5414285714286 103.2888170791952 633.5414285714286 116.25441007835 633.5414285714286 C 129.22000307750199 633.5414285714286 135.702799577078 631.7464714285713 148.66839257623 631.5757428571428 C 161.63398557538198 631.4050142857143 168.11678207495797 631.4050142857143 181.08237507411 631.4050142857143 C 194.05445086976198 631.4050142857143 200.54048876758802 631.4050142857143 213.51256456324 631.4050142857143 C 226.478157562396 631.4050142857143 232.960954061974 631.4050142857143 245.92654706113 631.4050142857143 C 258.89214006028203 631.4050142857143 265.374936559858 631.4050142857143 278.34052955901 631.4050142857143 C 291.377433319658 631.4050142857143 297.895885199982 631.4050142857143 310.93278896063 631.4050142857143 C 323.898381959782 631.4050142857143 330.381178459358 631.4050142857143 343.34677145851 631.4050142857143 C 356.312364457666 631.4050142857143 362.7951609572439 631.4050142857143 375.7607539564 631.4050142857143 C 388.732829752052 631.4050142857143 395.218867649878 631.4050142857143 408.19094344553 631.4050142857143 C 421.15653644468205 631.4050142857143 427.63933294425806 631.4050142857143 440.60492594341 631.4050142857143 C 453.570518942566 631.4050142857143 460.053315442144 631.4050142857143 473.0189084413 631.4050142857143 C 485.99098423695204 631.4050142857143 492.47702213477805 631.4050142857143 505.44909793043 631.4050142857143 C 518.414690929582 631.4050142857143 524.897487429158 631.4050142857143 537.86308042831 631.4050142857143 C 550.8286734274619 631.4050142857143 557.3114699270379 631.3219571428572 570.27706292619 631.3219571428572 C 583.242655925346 631.3219571428572 589.725452424924 631.3588714285714 602.69104542408 631.3588714285714 C 615.6631212197319 631.3588714285714 622.1491591175579 631.3588714285714 635.12123491321 631.3588714285714 C 648.086827912362 631.3588714285714 654.569624411938 631.3588714285714 667.53521741109 631.3588714285714 C 680.500810410246 631.3588714285714 686.983606909824 631.3588714285714 699.94919990898 631.3588714285714 C 712.914792908132 631.3588714285714 719.3975894077081 631.3588714285714 732.36318240686 631.3588714285714 C 745.335258202512 631.3588714285714 751.821296100338 631.3588714285714 764.79337189599 631.3588714285714 C 777.758964895142 631.3588714285714 784.241761394718 631.3588714285714 797.20735439387 631.3588714285714 C 810.172947393026 631.3588714285714 816.655743892604 631.3588714285714 829.62133689176 631.3588714285714 C 842.638792262908 631.3588714285714 849.1475199484821 631.3588714285714 862.16497531963 631.3588714285714 C 875.1370511152821 631.3588714285714 881.6230890131079 631.3588714285714 894.59516480876 631.3588714285714 C 907.5607578079159 631.3588714285714 914.043554307494 631.3588714285714 927.00914730665 631.3588714285714 C 939.974740305802 631.3588714285714 946.457536805378 631.3588714285714 959.42312980453 631.3588714285714 C 972.388722803682 631.3588714285714 978.871519303258 631.3588714285714 991.83711230241 631.3588714285714 C 1004.8091880980461 631.3588714285714 1011.295225995864 631.3588714285714 1024.2673017915 631.3588714285714 C 1037.23289479066 631.3588714285714 1043.7156912902399 631.3588714285714 1056.6812842894 631.3588714285714 C 1069.64687728856 631.3588714285714 1076.12967378814 631.3588714285714 1089.0952667873 631.3588714285714 C 1102.06085978646 631.3588714285714 1108.54365628604 631.3588714285714 1121.5092492852 631.3588714285714 C 1134.47484228436 631.3588714285714 1140.95763878394 631.3358 1153.9232317831 631.3358 C 1166.89530757874 631.3358 1173.38134547656 631.3358 1186.3534212722 631.3358 C 1199.31901427136 631.3358 1205.80181077094 631.3358 1218.7674037701 631.3358 C 1231.7394795657399 631.3358 1238.22551746356 631.3358 1251.1975932592 631.3358 C 1264.16318625836 631.3358 1270.64598275794 631.3358 1283.6115757571 631.3358 C 1296.5771687562599 631.3358 1303.05996525584 631.3358 1316.025558255 631.3358 C 1328.99763405064 631.3358 1335.48367194846 631.3358 1348.4557477441 631.3358 C 1361.42134074326 631.3358 1367.90413724284 631.3358 1380.869730242 631.3358 C 1393.8353232411598 631.3358 1400.31811974074 631.3358 1413.2837127399 631.3358 C 1426.27523692506 631.3358 1432.7709990176397 631.3358 1445.7625232028 631.3358 C 1458.7345989984399 631.3358 1465.22063689626 631.3358 1478.1927126919 631.3358 C 1491.16478848754 631.3358 1497.65082638536 631.3358 1510.622902181 631.3358 C 1523.58849518016 631.3358 1530.07129167974 631.3358 1543.0368846789 631.3358 C 1556.00247767806 631.3358 1562.4852741776401 631.3358 1575.4508671768 631.3358 C 1588.42294297244 631.3358 1594.90898087026 631.3358 1607.8810566659 631.3358 C 1620.84664966506 631.3358 1627.3294461646399 631.3358 1640.2950391638 631.3358 C 1653.2606321629598 631.3358 1659.74342866254 631.3358 1672.7090216617 631.3358 C 1685.68109745734 631.3358 1692.1671353551599 631.3358 1705.1392111508 631.3358 C 1718.1048041499598 631.3358 1724.58760064954 631.3358 1737.5531936487 631.3358 C 1750.52526944434 631.3358 1757.0113073421599 631.3358 1769.9833831378 631.3358 C 1782.94897613696 631.3358 1789.43177263654 631.3358 1802.3973656357 631.3358 C 1815.3629586348602 631.3358 1834.8113481336 631.3358 1834.8113481336 631.3358" class="highcharts-graph" stroke="rgb(242,133,7)" stroke-opacity="0.6" stroke-width="2" stroke-linejoin="round" stroke-linecap="round"></path></g><g class="highcharts-markers highcharts-series-1 highcharts-spline-series " transform="translate(35,45) scale(1 1)" clip-path="none"></g><g class="highcharts-series highcharts-series-2 highcharts-line-series " transform="translate(35,45) scale(1 1)" clip-path="url(#highcharts-j0jn192-74)"><path fill="none" d="M -78.26189889145 145.9406285714286 L -45.847916393567 145.9406285714286 L -13.433933895684 145.9406285714286 L 18.996255593448 145.9406285714286 L 51.410238091331 145.9406285714286 L 83.840427580463 145.9406285714286 L 116.25441007835 145.9406285714286 L 148.66839257623 66.17347142857147 L 181.08237507411 66.17347142857147 L 213.51256456324 66.17347142857147 L 245.92654706113 66.17347142857147 L 278.34052955901 66.17347142857147 L 310.93278896063 66.17347142857147 L 343.34677145851 66.17347142857147 L 375.7607539564 66.17347142857147 L 408.19094344553 66.17347142857147 L 440.60492594341 66.17347142857147 L 473.0189084413 66.17347142857147 L 505.44909793043 66.17347142857147 L 537.86308042831 66.17347142857147 L 570.27706292619 65.15371428571439 L 602.69104542408 66.17347142857147 L 635.12123491321 66.17347142857147 L 667.53521741109 66.17347142857147 L 699.94919990898 66.17347142857147 L 732.36318240686 66.17347142857147 L 764.79337189599 66.17347142857147 L 797.20735439387 66.17347142857147 L 829.62133689176 66.17347142857147 L 862.16497531963 66.17347142857147 L 894.59516480876 66.17347142857147 L 927.00914730665 66.17347142857147 L 959.42312980453 66.17347142857147 L 991.83711230241 66.17347142857147 L 1024.2673017915 66.17347142857147 L 1056.6812842894 66.17347142857147 L 1089.0952667873 66.17347142857147 L 1121.5092492852 66.17347142857147 L 1153.9232317831 66.17347142857147 L 1186.3534212722 66.17347142857147 L 1218.7674037701 66.17347142857147 L 1251.1975932592 66.17347142857147 L 1283.6115757571 66.17347142857147 L 1316.025558255 66.17347142857147 L 1348.4557477441 66.17347142857147 L 1380.869730242 66.17347142857147 L 1413.2837127399 66.17347142857147 L 1445.7625232028 66.17347142857147 L 1478.1927126919 66.17347142857147 L 1510.622902181 66.17347142857147 L 1543.0368846789 66.17347142857147 L 1575.4508671768 66.17347142857147 L 1607.8810566659 66.17347142857147 L 1640.2950391638 66.17347142857147 L 1672.7090216617 66.17347142857147 L 1705.1392111508 66.17347142857147 L 1737.5531936487 66.17347142857147 L 1769.9833831378 66.17347142857147 L 1802.3973656357 66.17347142857147 L 1834.8113481336 66.17347142857147" class="highcharts-graph" stroke="rgb(242,133,7)" stroke-opacity="0.6" stroke-width="2" stroke-linejoin="round" stroke-linecap="round"></path></g><g class="highcharts-markers highcharts-series-2 highcharts-line-series " transform="translate(35,45) scale(1 1)" clip-path="none"></g><g class="highcharts-series highcharts-series-4 highcharts-column-series " transform="translate(35,45) scale(1 1)" clip-path="url(#highcharts-j0jn192-75)"><rect x="43" y="647" width="27" height="0" fill="url(#highcharts-j0jn192-67)" rx="4" ry="4" stroke="rgb(64,48,117)" stroke-width="2" class="highcharts-point"></rect><rect x="238" y="647" width="27" height="0" fill="url(#highcharts-j0jn192-67)" rx="4" ry="4" stroke="rgb(64,48,117)" stroke-width="2" class="highcharts-point"></rect><rect x="433" y="647" width="27" height="0" fill="url(#highcharts-j0jn192-67)" rx="4" ry="4" stroke="rgb(64,48,117)" stroke-width="2" class="highcharts-point"></rect><rect x="627" y="542" width="27" height="105" fill="url(#highcharts-j0jn192-67)" rx="4" ry="4" stroke="rgb(64,48,117)" stroke-width="2" class="highcharts-point"></rect><rect x="822" y="308" width="27" height="339" fill="url(#highcharts-j0jn192-67)" rx="4" ry="4" stroke="rgb(64,48,117)" stroke-width="2" class="highcharts-point"></rect><rect x="1016" y="78" width="27" height="569" fill="url(#highcharts-j0jn192-67)" rx="4" ry="4" stroke="rgb(64,48,117)" stroke-width="2" class="highcharts-point"></rect></g><g class="highcharts-markers highcharts-series-4 highcharts-column-series " transform="translate(35,45) scale(1 1)" clip-path="none"></g><g class="highcharts-series highcharts-series-5 highcharts-column-series " transform="translate(35,45) scale(1 1)" clip-path="url(#highcharts-j0jn192-75)"></g><g class="highcharts-markers highcharts-series-5 highcharts-column-series " transform="translate(35,45) scale(1 1)" clip-path="none"></g><g class="highcharts-series highcharts-series-6 highcharts-column-series " transform="translate(35,45) scale(1 1)" clip-path="url(#highcharts-j0jn192-75)"></g><g class="highcharts-markers highcharts-series-6 highcharts-column-series " transform="translate(35,45) scale(1 1)" clip-path="none"></g><g class="highcharts-series highcharts-series-7 highcharts-column-series " transform="translate(35,45) scale(1 1)" clip-path="url(#highcharts-j0jn192-75)"><rect x="158" y="647" width="13" height="0" fill="url(#highcharts-j0jn192-70)" rx="4" ry="4" stroke="rgb(10,110,10)" stroke-opacity="0.4" stroke-width="2" class="highcharts-point"></rect><rect x="191" y="647" width="13" height="0" fill="url(#highcharts-j0jn192-70)" rx="4" ry="4" stroke="rgb(10,110,10)" stroke-opacity="0.4" stroke-width="2" class="highcharts-point"></rect><rect x="580" y="647" width="13" height="0" fill="url(#highcharts-j0jn192-70)" rx="4" ry="4" stroke="rgb(10,110,10)" stroke-opacity="0.4" stroke-width="2" class="highcharts-point"></rect><rect x="612" y="634" width="13" height="13" fill="url(#highcharts-j0jn192-70)" rx="4" ry="4" stroke="rgb(10,110,10)" stroke-opacity="0.4" stroke-width="2" class="highcharts-point"></rect><rect x="645" y="628" width="13" height="19" fill="url(#highcharts-j0jn192-70)" rx="4" ry="4" stroke="rgb(10,110,10)" stroke-opacity="0.4" stroke-width="2" class="highcharts-point"></rect><rect x="677" y="627" width="13" height="20" fill="url(#highcharts-j0jn192-70)" rx="4" ry="4" stroke="rgb(10,110,10)" stroke-opacity="0.4" stroke-width="2" class="highcharts-point"></rect><rect x="710" y="627" width="13" height="20" fill="url(#highcharts-j0jn192-70)" rx="4" ry="4" stroke="rgb(10,110,10)" stroke-opacity="0.4" stroke-width="2" class="highcharts-point"></rect><rect x="742" y="627" width="13" height="20" fill="url(#highcharts-j0jn192-70)" rx="4" ry="4" stroke="rgb(10,110,10)" stroke-opacity="0.4" stroke-width="2" class="highcharts-point"></rect><rect x="775" y="627" width="13" height="20" fill="url(#highcharts-j0jn192-70)" rx="4" ry="4" stroke="rgb(10,110,10)" stroke-opacity="0.4" stroke-width="2" class="highcharts-point"></rect><rect x="807" y="626" width="13" height="21" fill="url(#highcharts-j0jn192-70)" rx="4" ry="4" stroke="rgb(10,110,10)" stroke-opacity="0.4" stroke-width="2" class="highcharts-point"></rect><rect x="839" y="627" width="13" height="20" fill="url(#highcharts-j0jn192-70)" rx="4" ry="4" stroke="rgb(10,110,10)" stroke-opacity="0.4" stroke-width="2" class="highcharts-point"></rect><rect x="872" y="631" width="13" height="16" fill="url(#highcharts-j0jn192-70)" rx="4" ry="4" stroke="rgb(10,110,10)" stroke-opacity="0.4" stroke-width="2" class="highcharts-point"></rect><rect x="904" y="634" width="13" height="13" fill="url(#highcharts-j0jn192-70)" rx="4" ry="4" stroke="rgb(10,110,10)" stroke-opacity="0.4" stroke-width="2" class="highcharts-point"></rect><rect x="937" y="627" width="13" height="20" fill="url(#highcharts-j0jn192-70)" rx="4" ry="4" stroke="rgb(10,110,10)" stroke-opacity="0.4" stroke-width="2" class="highcharts-point"></rect><rect x="969" y="626" width="13" height="21" fill="url(#highcharts-j0jn192-70)" rx="4" ry="4" stroke="rgb(10,110,10)" stroke-opacity="0.4" stroke-width="2" class="highcharts-point"></rect><rect x="1002" y="627" width="13" height="20" fill="url(#highcharts-j0jn192-70)" rx="4" ry="4" stroke="rgb(10,110,10)" stroke-opacity="0.4" stroke-width="2" class="highcharts-point"></rect><rect x="1034" y="627" width="13" height="20" fill="url(#highcharts-j0jn192-70)" rx="4" ry="4" stroke="rgb(10,110,10)" stroke-opacity="0.4" stroke-width="2" class="highcharts-point"></rect><rect x="1066" y="627" width="13" height="20" fill="url(#highcharts-j0jn192-70)" rx="4" ry="4" stroke="rgb(10,110,10)" stroke-opacity="0.4" stroke-width="2" class="highcharts-point"></rect><rect x="1099" y="627" width="13" height="20" fill="url(#highcharts-j0jn192-70)" rx="4" ry="4" stroke="rgb(10,110,10)" stroke-opacity="0.4" stroke-width="2" class="highcharts-point"></rect><rect x="1131" y="627" width="13" height="20" fill="url(#highcharts-j0jn192-70)" rx="4" ry="4" stroke="rgb(10,110,10)" stroke-opacity="0.4" stroke-width="2" class="highcharts-point"></rect><rect x="1164" y="646" width="13" height="1" fill="url(#highcharts-j0jn192-70)" rx="4" ry="4" stroke="rgb(10,110,10)" stroke-opacity="0.4" stroke-width="2" class="highcharts-point"></rect></g><g class="highcharts-markers highcharts-series-7 highcharts-column-series " transform="translate(35,45) scale(1 1)" clip-path="none"></g><g class="highcharts-series highcharts-series-8 highcharts-column-series highcharts-color-1 " visibility="hidden" transform="translate(35,45) scale(1 1)" clip-path="url(#highcharts-j0jn192-75)"></g><g class="highcharts-markers highcharts-series-8 highcharts-column-series highcharts-color-1 " visibility="hidden" transform="translate(35,45) scale(1 1)" clip-path="none"></g><g class="highcharts-series highcharts-series-9 highcharts-areaspline-series highcharts-navigator-series" transform="translate(35,714) scale(1 1)" clip-path="url(#highcharts-j0jn192-76)"><path fill="url(#highcharts-j0jn192-72)" d="M 771.84270567709 24 C 771.84270567709 24 771.84270567709 24 771.84270567709 24 C 771.84270567709 24 776.988323714938 24 780.41873574017 24 C 783.849147765402 24 785.564353778018 24 788.99476580325 24 C 792.426893034494 24 794.1429566501159 24 797.57508388136 24 C 801.0054959065919 24 802.720701919208 24 806.15111394444 24 C 809.583241175684 24 811.299304791306 24 814.73143202255 24 C 818.1618440477821 24 819.877050060398 24 823.30746208563 24 C 826.737874110858 24 828.453080123472 4.4613297150610585 831.8834921487 4.4613297150610585 C 835.313904173932 4.4613297150610585 837.0291101865481 6.741817937645443 840.45952221178 10.648575305291722 C 843.8916494430239 14.557286051621018 845.607713058646 24 849.03984028989 24 C 852.470252315122 24 854.1854583277379 24 857.61587035297 24 C 861.046282378202 24 862.7614883908179 24 866.19190041605 24 C 869.6411797074219 24 871.365819353108 24 874.81509864448 24 C 878.2455106697122 24 879.960716682328 24 883.39112870756 24 C 886.821540732788 24 888.536746745402 24 891.96715877063 24 C 895.3992860018782 24 897.1153496175018 24 900.54747684875 24 C 903.977888873978 24 905.693094886592 24 909.12350691182 24 C 912.553918937052 24 914.2691249496678 24 917.6995369749 24 C 921.131664206144 24 922.8477278217658 24 926.27985505301 24 C 929.710267078242 24 931.4254730908581 24 934.85588511609 24 C 938.286297141322 24 940.0015031539381 24 943.43191517917 24 C 946.862327204402 24 948.5775332170181 7.272727272727277 952.00794524225 4.786974219810041 C 955.440072473494 2.3012211668928053 957.1561360891161 2.3012211668928053 960.58826332036 2.3012211668928053 C 964.0186753455921 2.3012211668928053 965.733881358208 2.398914518317504 969.16429338344 2.398914518317504 C 972.5947054086721 2.398914518317504 974.309911421288 2.290366350067842 977.74032344652 2.290366350067842 C 981.1707354717521 2.290366350067842 982.885941484368 2.3316314747635962 986.3163535096 2.398914518317504 C 989.748480740844 2.466231203393175 991.4645443564659 2.626865671641788 994.89667158771 2.626865671641788 C 998.3270836129461 2.626865671641788 1000.0422896255641 2.290366350067842 1003.4727016508 2.290366350067842 C 1006.9031136760401 2.290366350067842 1008.6183196886599 2.290366350067842 1012.0487317139 2.398914518317504 C 1015.49286538722 2.507462686567166 1017.2149322238799 3.444522822293532 1020.6590658972 3.9012211668928067 C 1024.09119312844 4.356327435590682 1025.80725674406 4.678426051560379 1029.2393839753 4.678426051560379 C 1032.66979600054 4.678426051560379 1034.38500201316 2.507462686567166 1037.8154140384 2.398914518317504 C 1041.24582606364 2.290366350067842 1042.96103207626 2.33378561736796 1046.3914441015 2.290366350067842 C 1049.8218561267 2.24694708276823 1051.5370621393 2.18181818181818 1054.9674741645 2.18181818181818 C 1058.3996013957799 2.18181818181818 1060.11566501142 2.3012211668928053 1063.5477922427 2.3012211668928053 C 1066.9782042679003 2.3012211668928053 1068.6934102805 2.290366350067842 1072.1238223057 2.290366350067842 C 1075.55423433094 2.290366350067842 1077.2694403435603 2.398914518317504 1080.6998523688 2.398914518317504 C 1084.1302643940403 2.398914518317504 1085.84547040666 2.290366350067842 1089.2758824319 2.290366350067842 C 1092.70629445714 2.290366350067842 1094.4215004697603 18.13839891451832 1097.851912495 21.06919945725916 C 1101.28403972624 24 1103.00010334186 24 1106.4322305731 24 C 1109.8626425983398 24 1111.57784861096 24 1115.0082606362 24 C 1118.4403878674398 24 1120.15645148306 24 1123.5885787143 24 C 1127.0189907395002 24 1128.7341967521 24 1132.1646087773 24 C 1135.59502080254 24 1137.3102268151601 24 1140.7406388404 24 C 1144.1727660716401 24 1145.8888296872599 24 1149.3209569185 24 C 1152.75136894374 24 1154.46657495636 24 1157.8969869816 24 C 1161.32739900684 24 1163.04260501946 24 1166.4730170447 24 C 1169.91028989398 24 1171.6289263186202 24 1175.0661991679 24 C 1178.4983263991403 24 1180.2143900147598 23.891451831750338 1183.646517246 23.891451831750338 C 1187.0786444772398 23.891451831750338 1188.79470809286 24 1192.2268353241 24 C 1195.6572473493402 24 1197.37245336196 24 1200.8028653872 24 C 1204.23327741244 24 1205.9484834250602 24 1209.3788954503 24 C 1212.81102268154 24 1214.52708629716 24 1217.9592135284 24 C 1221.3896255536397 24 1223.10483156626 24 1226.5352435915 24 C 1229.9656556167 24 1231.6808616293001 24 1235.1112736545 24 C 1238.54340088578 24 1240.25946450142 24 1243.6915917327 24 C 1247.1220037579 24 1248.8372097705 24 1252.2676217957 24 C 1255.69974902694 24 1257.41581264256 24 1260.8479398738 24 C 1264.27835189904 24 1265.99355791166 24 1269.4239699369 24 C 1272.85438196214 24 1278 24 1278 24 L 1278 24 C 1278 24 1272.85438196214 24 1269.4239699369 24 C 1265.99355791166 24 1264.27835189904 24 1260.8479398738 24 C 1257.41581264256 24 1255.69974902694 24 1252.2676217957 24 C 1248.8372097705 24 1247.1220037579 24 1243.6915917327 24 C 1240.25946450142 24 1238.54340088578 24 1235.1112736545 24 C 1231.6808616293001 24 1229.9656556167 24 1226.5352435915 24 C 1223.10483156626 24 1221.3896255536397 24 1217.9592135284 24 C 1214.52708629716 24 1212.81102268154 24 1209.3788954503 24 C 1205.9484834250602 24 1204.23327741244 24 1200.8028653872 24 C 1197.37245336196 24 1195.6572473493402 24 1192.2268353241 24 C 1188.79470809286 24 1187.0786444772398 24 1183.646517246 24 C 1180.2143900147598 24 1178.4983263991403 24 1175.0661991679 24 C 1171.6289263186202 24 1169.91028989398 24 1166.4730170447 24 C 1163.04260501946 24 1161.32739900684 24 1157.8969869816 24 C 1154.46657495636 24 1152.75136894374 24 1149.3209569185 24 C 1145.8888296872599 24 1144.1727660716401 24 1140.7406388404 24 C 1137.3102268151601 24 1135.59502080254 24 1132.1646087773 24 C 1128.7341967521 24 1127.0189907395002 24 1123.5885787143 24 C 1120.15645148306 24 1118.4403878674398 24 1115.0082606362 24 C 1111.57784861096 24 1109.8626425983398 24 1106.4322305731 24 C 1103.00010334186 24 1101.28403972624 24 1097.851912495 24 C 1094.4215004697603 24 1092.70629445714 24 1089.2758824319 24 C 1085.84547040666 24 1084.1302643940403 24 1080.6998523688 24 C 1077.2694403435603 24 1075.55423433094 24 1072.1238223057 24 C 1068.6934102805 24 1066.9782042679003 24 1063.5477922427 24 C 1060.11566501142 24 1058.3996013957799 24 1054.9674741645 24 C 1051.5370621393 24 1049.8218561267 24 1046.3914441015 24 C 1042.96103207626 24 1041.24582606364 24 1037.8154140384 24 C 1034.38500201316 24 1032.66979600054 24 1029.2393839753 24 C 1025.80725674406 24 1024.09119312844 24 1020.6590658972 24 C 1017.2149322238799 24 1015.49286538722 24 1012.0487317139 24 C 1008.6183196886599 24 1006.9031136760401 24 1003.4727016508 24 C 1000.0422896255641 24 998.3270836129461 24 994.89667158771 24 C 991.4645443564659 24 989.748480740844 24 986.3163535096 24 C 982.885941484368 24 981.1707354717521 24 977.74032344652 24 C 974.309911421288 24 972.5947054086721 24 969.16429338344 24 C 965.733881358208 24 964.0186753455921 24 960.58826332036 24 C 957.1561360891161 24 955.440072473494 24 952.00794524225 24 C 948.5775332170181 24 946.862327204402 24 943.43191517917 24 C 940.0015031539381 24 938.286297141322 24 934.85588511609 24 C 931.4254730908581 24 929.710267078242 24 926.27985505301 24 C 922.8477278217658 24 921.131664206144 24 917.6995369749 24 C 914.2691249496678 24 912.553918937052 24 909.12350691182 24 C 905.693094886592 24 903.977888873978 24 900.54747684875 24 C 897.1153496175018 24 895.3992860018782 24 891.96715877063 24 C 888.536746745402 24 886.821540732788 24 883.39112870756 24 C 879.960716682328 24 878.2455106697122 24 874.81509864448 24 C 871.365819353108 24 869.6411797074219 24 866.19190041605 24 C 862.7614883908179 24 861.046282378202 24 857.61587035297 24 C 854.1854583277379 24 852.470252315122 24 849.03984028989 24 C 845.607713058646 24 843.8916494430239 24 840.45952221178 24 C 837.0291101865481 24 835.313904173932 24 831.8834921487 24 C 828.453080123472 24 826.737874110858 24 823.30746208563 24 C 819.877050060398 24 818.1618440477821 24 814.73143202255 24 C 811.299304791306 24 809.583241175684 24 806.15111394444 24 C 802.720701919208 24 801.0054959065919 24 797.57508388136 24 C 794.1429566501159 24 792.426893034494 24 788.99476580325 24 C 785.564353778018 24 783.849147765402 24 780.41873574017 24 C 776.988323714938 24 771.84270567709 24 771.84270567709 24 C 771.84270567709 24 771.84270567709 24 771.84270567709 24" class="highcharts-area"></path><path fill="none" d="M 771.84270567709 24 C 771.84270567709 24 776.988323714938 24 780.41873574017 24 C 783.849147765402 24 785.564353778018 24 788.99476580325 24 C 792.426893034494 24 794.1429566501159 24 797.57508388136 24 C 801.0054959065919 24 802.720701919208 24 806.15111394444 24 C 809.583241175684 24 811.299304791306 24 814.73143202255 24 C 818.1618440477821 24 819.877050060398 24 823.30746208563 24 C 826.737874110858 24 828.453080123472 4.4613297150610585 831.8834921487 4.4613297150610585 C 835.313904173932 4.4613297150610585 837.0291101865481 6.741817937645443 840.45952221178 10.648575305291722 C 843.8916494430239 14.557286051621018 845.607713058646 24 849.03984028989 24 C 852.470252315122 24 854.1854583277379 24 857.61587035297 24 C 861.046282378202 24 862.7614883908179 24 866.19190041605 24 C 869.6411797074219 24 871.365819353108 24 874.81509864448 24 C 878.2455106697122 24 879.960716682328 24 883.39112870756 24 C 886.821540732788 24 888.536746745402 24 891.96715877063 24 C 895.3992860018782 24 897.1153496175018 24 900.54747684875 24 C 903.977888873978 24 905.693094886592 24 909.12350691182 24 C 912.553918937052 24 914.2691249496678 24 917.6995369749 24 C 921.131664206144 24 922.8477278217658 24 926.27985505301 24 C 929.710267078242 24 931.4254730908581 24 934.85588511609 24 C 938.286297141322 24 940.0015031539381 24 943.43191517917 24 C 946.862327204402 24 948.5775332170181 7.272727272727277 952.00794524225 4.786974219810041 C 955.440072473494 2.3012211668928053 957.1561360891161 2.3012211668928053 960.58826332036 2.3012211668928053 C 964.0186753455921 2.3012211668928053 965.733881358208 2.398914518317504 969.16429338344 2.398914518317504 C 972.5947054086721 2.398914518317504 974.309911421288 2.290366350067842 977.74032344652 2.290366350067842 C 981.1707354717521 2.290366350067842 982.885941484368 2.3316314747635962 986.3163535096 2.398914518317504 C 989.748480740844 2.466231203393175 991.4645443564659 2.626865671641788 994.89667158771 2.626865671641788 C 998.3270836129461 2.626865671641788 1000.0422896255641 2.290366350067842 1003.4727016508 2.290366350067842 C 1006.9031136760401 2.290366350067842 1008.6183196886599 2.290366350067842 1012.0487317139 2.398914518317504 C 1015.49286538722 2.507462686567166 1017.2149322238799 3.444522822293532 1020.6590658972 3.9012211668928067 C 1024.09119312844 4.356327435590682 1025.80725674406 4.678426051560379 1029.2393839753 4.678426051560379 C 1032.66979600054 4.678426051560379 1034.38500201316 2.507462686567166 1037.8154140384 2.398914518317504 C 1041.24582606364 2.290366350067842 1042.96103207626 2.33378561736796 1046.3914441015 2.290366350067842 C 1049.8218561267 2.24694708276823 1051.5370621393 2.18181818181818 1054.9674741645 2.18181818181818 C 1058.3996013957799 2.18181818181818 1060.11566501142 2.3012211668928053 1063.5477922427 2.3012211668928053 C 1066.9782042679003 2.3012211668928053 1068.6934102805 2.290366350067842 1072.1238223057 2.290366350067842 C 1075.55423433094 2.290366350067842 1077.2694403435603 2.398914518317504 1080.6998523688 2.398914518317504 C 1084.1302643940403 2.398914518317504 1085.84547040666 2.290366350067842 1089.2758824319 2.290366350067842 C 1092.70629445714 2.290366350067842 1094.4215004697603 18.13839891451832 1097.851912495 21.06919945725916 C 1101.28403972624 24 1103.00010334186 24 1106.4322305731 24 C 1109.8626425983398 24 1111.57784861096 24 1115.0082606362 24 C 1118.4403878674398 24 1120.15645148306 24 1123.5885787143 24 C 1127.0189907395002 24 1128.7341967521 24 1132.1646087773 24 C 1135.59502080254 24 1137.3102268151601 24 1140.7406388404 24 C 1144.1727660716401 24 1145.8888296872599 24 1149.3209569185 24 C 1152.75136894374 24 1154.46657495636 24 1157.8969869816 24 C 1161.32739900684 24 1163.04260501946 24 1166.4730170447 24 C 1169.91028989398 24 1171.6289263186202 24 1175.0661991679 24 C 1178.4983263991403 24 1180.2143900147598 23.891451831750338 1183.646517246 23.891451831750338 C 1187.0786444772398 23.891451831750338 1188.79470809286 24 1192.2268353241 24 C 1195.6572473493402 24 1197.37245336196 24 1200.8028653872 24 C 1204.23327741244 24 1205.9484834250602 24 1209.3788954503 24 C 1212.81102268154 24 1214.52708629716 24 1217.9592135284 24 C 1221.3896255536397 24 1223.10483156626 24 1226.5352435915 24 C 1229.9656556167 24 1231.6808616293001 24 1235.1112736545 24 C 1238.54340088578 24 1240.25946450142 24 1243.6915917327 24 C 1247.1220037579 24 1248.8372097705 24 1252.2676217957 24 C 1255.69974902694 24 1257.41581264256 24 1260.8479398738 24 C 1264.27835189904 24 1265.99355791166 24 1269.4239699369 24 C 1272.85438196214 24 1278 24 1278 24" class="highcharts-graph" stroke="rgb(170,70,67)" stroke-width="1" stroke-linejoin="round" stroke-linecap="round"></path></g><g class="highcharts-markers highcharts-series-9 highcharts-areaspline-series highcharts-navigator-series" transform="translate(35,714) scale(1 1)" clip-path="none"></g><g class="highcharts-series highcharts-series-3 highcharts-flags-series highcharts-color-0 " transform="translate(35,45) scale(1 1)" clip-path="url(#highcharts-j0jn192-71)"></g><g class="highcharts-markers highcharts-series-3 highcharts-flags-series highcharts-color-0 " transform="translate(35,45) scale(1 1)"><g class="highcharts-label highcharts-point" transform="translate(1098,604)"><path fill="#DDAAAA" class="highcharts-label-box" d="M 0.5 0.5 L 114.5 0.5 114.5 19.5 0.5 19.5 Z M 57.75 19.5 L 57.5 30.25454545454545 M 58.5 30.25454545454545 A 1 1 0 1 1 58.499999500000044 30.253545454712118 Z" stroke="#7cb5ec" stroke-width="1"></path><text x="3" style="font-size:11px;font-weight:bold;" y="14">FOR_LOOP_MACRO</text></g><g class="highcharts-label highcharts-point" transform="translate(546,604)"><path fill="#DDAAAA" class="highcharts-label-box" d="M 0.5 0.5 L 114.5 0.5 114.5 19.5 0.5 19.5 Z M 57.75 19.5 L 57.5 30.25454545454545 M 58.5 30.25454545454545 A 1 1 0 1 1 58.499999500000044 30.253545454712118 Z" stroke="#7cb5ec" stroke-width="1"></path><text x="3" style="font-size:11px;font-weight:bold;" y="14">FOR_LOOP_MACRO</text></g><g class="highcharts-label highcharts-point" transform="translate(167,604)"><path fill="#DDAAAA" class="highcharts-label-box" d="M 0.5 0.5 L 94.5 0.5 94.5 19.5 0.5 19.5 Z M 47.75 19.5 L 47.5 30.25454545454545 M 48.5 30.25454545454545 A 1 1 0 1 1 48.499999500000044 30.253545454712118 Z" stroke="#7cb5ec" stroke-width="1"></path><text x="3" style="font-size:11px;font-weight:bold;" y="14">FOR_LOOP_LUA</text></g><g class="highcharts-label highcharts-point" transform="translate(102,604)"><path fill="#DDAAAA" class="highcharts-label-box" d="M 0.5 0.5 L 94.5 0.5 94.5 19.5 0.5 19.5 Z M 47.75 19.5 L 47.5 30.25454545454545 M 48.5 30.25454545454545 A 1 1 0 1 1 48.499999500000044 30.253545454712118 Z" stroke="#7cb5ec" stroke-width="1"></path><text x="3" style="font-size:11px;font-weight:bold;" y="14">FOR_LOOP_LUA</text></g></g></g><text x="714" text-anchor="middle" class="highcharts-title" style="color:#333333;font-size:16px;fill:#333333;" y="22"></text><text x="714" text-anchor="middle" class="highcharts-subtitle" style="color:#666666;fill:#666666;" y="24"></text><g class="highcharts-axis-labels highcharts-xaxis-labels "><text x="246.9404864121" style="color:#666666;cursor:default;font-size:11px;fill:#666666;" text-anchor="middle" transform="translate(0,0)" y="710" opacity="1">15:06:30</text><text x="733.15022388034" style="color:#666666;cursor:default;font-size:11px;fill:#666666;" text-anchor="middle" transform="translate(0,0)" y="710" opacity="1">15:07:00</text><text x="1219.3599613486" style="color:#666666;cursor:default;font-size:11px;fill:#666666;" text-anchor="middle" transform="translate(0,0)" y="710" opacity="1">15:07:30</text><text x="84.870573922682" style="color:#666666;cursor:default;font-size:11px;fill:#666666;" text-anchor="middle" transform="translate(0,0)" y="710" opacity="1">15:06:20</text><text x="165.90553016739" style="color:#666666;cursor:default;font-size:11px;fill:#666666;" text-anchor="middle" transform="translate(0,0)" y="710" opacity="1">15:06:25</text><text x="327.9754426568" style="color:#666666;cursor:default;font-size:11px;fill:#666666;" text-anchor="middle" transform="translate(0,0)" y="710" opacity="1">15:06:35</text><text x="409.01039890151" style="color:#666666;cursor:default;font-size:11px;fill:#666666;" text-anchor="middle" transform="translate(0,0)" y="710" opacity="1">15:06:40</text><text x="490.04535514622" style="color:#666666;cursor:default;font-size:11px;fill:#666666;" text-anchor="middle" transform="translate(0,0)" y="710" opacity="1">15:06:45</text><text x="571.08031139093" style="color:#666666;cursor:default;font-size:11px;fill:#666666;" text-anchor="middle" transform="translate(0,0)" y="710" opacity="1">15:06:50</text><text x="652.11526763564" style="color:#666666;cursor:default;font-size:11px;fill:#666666;" text-anchor="middle" transform="translate(0,0)" y="710" opacity="1">15:06:55</text><text x="814.18518012505" style="color:#666666;cursor:default;font-size:11px;fill:#666666;" text-anchor="middle" transform="translate(0,0)" y="710" opacity="1">15:07:05</text><text x="895.22013636976" style="color:#666666;cursor:default;font-size:11px;fill:#666666;" text-anchor="middle" transform="translate(0,0)" y="710" opacity="1">15:07:10</text><text x="976.25509261447" style="color:#666666;cursor:default;font-size:11px;fill:#666666;" text-anchor="middle" transform="translate(0,0)" y="710" opacity="1">15:07:15</text><text x="1057.2900488592" style="color:#666666;cursor:default;font-size:11px;fill:#666666;" text-anchor="middle" transform="translate(0,0)" y="710" opacity="1">15:07:20</text><text x="1138.3250051039" style="color:#666666;cursor:default;font-size:11px;fill:#666666;" text-anchor="middle" transform="translate(0,0)" y="710" opacity="1">15:07:25</text><text x="1300.3949175933" style="color:#666666;cursor:default;font-size:11px;fill:#666666;" text-anchor="middle" transform="translate(0,0)" y="710" opacity="1">15:07:35</text></g><g class="highcharts-axis-labels highcharts-xaxis-labels highcharts-navigator-xaxis"><text x="243.42164810093" style="color:#999999;cursor:default;font-size:11px;fill:#999999;" text-anchor="start" transform="translate(0,0)" y="734" opacity="1">15:04</text><text x="500.70254999329" style="color:#999999;cursor:default;font-size:11px;fill:#999999;" text-anchor="start" transform="translate(0,0)" y="734" opacity="1">15:05</text><text x="757.98345188565" style="color:#999999;cursor:default;font-size:11px;fill:#999999;" text-anchor="start" transform="translate(0,0)" y="734" opacity="1">15:06</text><text x="1015.264353778" style="color:#999999;cursor:default;font-size:11px;fill:#999999;" text-anchor="start" transform="translate(0,0)" y="734" opacity="1">15:07</text><text x="1272.5452556704" style="color:#999999;cursor:default;font-size:11px;fill:#999999;" text-anchor="start" transform="translate(0,0)" y="734" opacity="1">15:08</text></g><g class="highcharts-axis-labels highcharts-yaxis-labels "><text x="37" style="color:#aa4643;cursor:default;font-size:11px;fill:#aa4643;" text-anchor="start" transform="translate(0,0)" y="689" opacity="1">0%</text><text x="37" style="color:#aa4643;cursor:default;font-size:11px;fill:#aa4643;" text-anchor="start" transform="translate(0,0)" y="630" opacity="1">10%</text><text x="37" style="color:#aa4643;cursor:default;font-size:11px;fill:#aa4643;" text-anchor="start" transform="translate(0,0)" y="572" opacity="1">20%</text><text x="37" style="color:#aa4643;cursor:default;font-size:11px;fill:#aa4643;" text-anchor="start" transform="translate(0,0)" y="513" opacity="1">30%</text><text x="37" style="color:#aa4643;cursor:default;font-size:11px;fill:#aa4643;" text-anchor="start" transform="translate(0,0)" y="454" opacity="1">40%</text><text x="37" style="color:#aa4643;cursor:default;font-size:11px;fill:#aa4643;" text-anchor="start" transform="translate(0,0)" y="395" opacity="1">50%</text><text x="37" style="color:#aa4643;cursor:default;font-size:11px;fill:#aa4643;" text-anchor="start" transform="translate(0,0)" y="337" opacity="1">60%</text><text x="37" style="color:#aa4643;cursor:default;font-size:11px;fill:#aa4643;" text-anchor="start" transform="translate(0,0)" y="278" opacity="1">70%</text><text x="37" style="color:#aa4643;cursor:default;font-size:11px;fill:#aa4643;" text-anchor="start" transform="translate(0,0)" y="219" opacity="1">80%</text><text x="37" style="color:#aa4643;cursor:default;font-size:11px;fill:#aa4643;" text-anchor="start" transform="translate(0,0)" y="160" opacity="1">90%</text><text x="37" style="color:#aa4643;cursor:default;font-size:11px;fill:#aa4643;" text-anchor="start" transform="translate(0,0)" y="102" opacity="1">100%</text><text x="0" style="color:#aa4643;cursor:default;font-size:11px;fill:#aa4643;" text-anchor="start" transform="translate(0,0)" y="-9999">110%</text></g><g class="highcharts-axis-labels highcharts-yaxis-labels "><text x="1311" style="color:#f28507;cursor:default;font-size:11px;fill:#f28507;" text-anchor="end" transform="translate(0,0)" y="689" opacity="1"><tspan>0 MB</tspan></text><text x="1311" style="color:#f28507;cursor:default;font-size:11px;fill:#f28507;" text-anchor="end" transform="translate(0,0)" y="643" opacity="1"><tspan>100 MB</tspan></text><text x="1311" style="color:#f28507;cursor:default;font-size:11px;fill:#f28507;" text-anchor="end" transform="translate(0,0)" y="597" opacity="1"><tspan>200 MB</tspan></text><text x="1311" style="color:#f28507;cursor:default;font-size:11px;fill:#f28507;" text-anchor="end" transform="translate(0,0)" y="551" opacity="1"><tspan>300 MB</tspan></text><text x="1311" style="color:#f28507;cursor:default;font-size:11px;fill:#f28507;" text-anchor="end" transform="translate(0,0)" y="504" opacity="1"><tspan>400 MB</tspan></text><text x="1311" style="color:#f28507;cursor:default;font-size:11px;fill:#f28507;" text-anchor="end" transform="translate(0,0)" y="458" opacity="1"><tspan>500 MB</tspan></text><text x="1311" style="color:#f28507;cursor:default;font-size:11px;fill:#f28507;" text-anchor="end" transform="translate(0,0)" y="412" opacity="1"><tspan>600 MB</tspan></text><text x="1311" style="color:#f28507;cursor:default;font-size:11px;fill:#f28507;" text-anchor="end" transform="translate(0,0)" y="366" opacity="1"><tspan>700 MB</tspan></text><text x="1311" style="color:#f28507;cursor:default;font-size:11px;fill:#f28507;" text-anchor="end" transform="translate(0,0)" y="320" opacity="1"><tspan>800 MB</tspan></text><text x="1311" style="color:#f28507;cursor:default;font-size:11px;fill:#f28507;" text-anchor="end" transform="translate(0,0)" y="274" opacity="1"><tspan>900 MB</tspan></text><text x="1311" style="color:#f28507;cursor:default;font-size:11px;fill:#f28507;" text-anchor="end" transform="translate(0,0)" y="228" opacity="1"><tspan>1000 MB</tspan></text><text x="1311" style="color:#f28507;cursor:default;font-size:11px;fill:#f28507;" text-anchor="end" transform="translate(0,0)" y="181" opacity="1"><tspan>1100 MB</tspan></text><text x="1311" style="color:#f28507;cursor:default;font-size:11px;fill:#f28507;" text-anchor="end" transform="translate(0,0)" y="135" opacity="1"><tspan>1200 MB</tspan></text><text x="1311" style="color:#f28507;cursor:default;font-size:11px;fill:#f28507;" text-anchor="end" transform="translate(0,0)" y="89" opacity="1"><tspan>1300 MB</tspan></text><text x="0" style="color:#f28507;cursor:default;font-size:11px;fill:#f28507;" text-anchor="end" transform="translate(0,0)" y="-9999"><tspan>1400 MB</tspan></text></g><g class="highcharts-axis-labels highcharts-yaxis-labels "><text x="1391" style="color:#4572a7;cursor:default;font-size:11px;fill:#4572a7;" text-anchor="end" transform="translate(0,0)" y="689" opacity="1"><tspan>0 MB</tspan></text><text x="1391" style="color:#4572a7;cursor:default;font-size:11px;fill:#4572a7;" text-anchor="end" transform="translate(0,0)" y="617" opacity="1"><tspan>100 MB</tspan></text><text x="1391" style="color:#4572a7;cursor:default;font-size:11px;fill:#4572a7;" text-anchor="end" transform="translate(0,0)" y="545" opacity="1"><tspan>200 MB</tspan></text><text x="1391" style="color:#4572a7;cursor:default;font-size:11px;fill:#4572a7;" text-anchor="end" transform="translate(0,0)" y="474" opacity="1"><tspan>300 MB</tspan></text><text x="1391" style="color:#4572a7;cursor:default;font-size:11px;fill:#4572a7;" text-anchor="end" transform="translate(0,0)" y="402" opacity="1"><tspan>400 MB</tspan></text><text x="1391" style="color:#4572a7;cursor:default;font-size:11px;fill:#4572a7;" text-anchor="end" transform="translate(0,0)" y="330" opacity="1"><tspan>500 MB</tspan></text><text x="1391" style="color:#4572a7;cursor:default;font-size:11px;fill:#4572a7;" text-anchor="end" transform="translate(0,0)" y="258" opacity="1"><tspan>600 MB</tspan></text><text x="1391" style="color:#4572a7;cursor:default;font-size:11px;fill:#4572a7;" text-anchor="end" transform="translate(0,0)" y="187" opacity="1"><tspan>700 MB</tspan></text><text x="1391" style="color:#4572a7;cursor:default;font-size:11px;fill:#4572a7;" text-anchor="end" transform="translate(0,0)" y="115" opacity="1"><tspan>800 MB</tspan></text><text x="0" style="color:#4572a7;cursor:default;font-size:11px;fill:#4572a7;" text-anchor="end" transform="translate(0,0)" y="-9999"><tspan>900 MB</tspan></text></g><g class="highcharts-axis-labels highcharts-yaxis-labels highcharts-navigator-yaxis"></g><g class="highcharts-range-selector-group" transform="translate(0,0)"><g class="highcharts-range-selector-buttons" transform="translate(0,10)"><text x="35" y="15" style="color:silver;font-weight:bold;fill:silver;">Zoom</text><g class="highcharts-button highcharts-button-normal" style="cursor:pointer;" states="[object Object]" transform="translate(75,0)"><rect fill="none" class=" highcharts-button-box" x="0" y="0" width="32" height="22" rx="4" ry="4"></rect><text x="6.6015625" style="font-weight:bold;color:#ffaf38;fill:#ffaf38;" y="14">1M</text></g><g class="highcharts-button highcharts-button-normal" style="cursor:pointer;" states="[object Object]" transform="translate(112,0)"><rect fill="none" class=" highcharts-button-box" x="0" y="0" width="32" height="22" rx="4" ry="4"></rect><text x="2.640625" style="font-weight:bold;color:#ffaf38;fill:#ffaf38;" y="14">10M</text></g><g class="highcharts-button highcharts-button-normal" style="cursor:pointer;" states="[object Object]" transform="translate(149,0)"><rect fill="none" class=" highcharts-button-box" x="0" y="0" width="32" height="22" rx="4" ry="4"></rect><text x="7.6796875" style="font-weight:bold;color:#ffaf38;fill:#ffaf38;" y="14">All</text></g></g></g><g class="highcharts-legend" transform="translate(230,7)"><rect fill="#FFFFFF" class="highcharts-legend-box" rx="0" ry="0" x="0" y="0" width="755" height="26" visibility="visible"></rect><g><g><g class="highcharts-legend-item highcharts-areaspline-series highcharts-color-undefined highcharts-series-0" transform="translate(8,3)"><text x="21" style="color:#333333;font-size:12px;font-weight:bold;cursor:pointer;fill:#333333;" text-anchor="start" y="15"><tspan>CPU</tspan></text><rect x="2" y="4" width="12" height="12" fill="rgb(170,70,67)" rx="6" ry="6" class="highcharts-point"></rect></g><g class="highcharts-legend-item highcharts-spline-series highcharts-color-undefined highcharts-series-1" transform="translate(73.734375,3)"><path fill="none" d="M 0 11 L 16 11" class="highcharts-graph" stroke="rgb(242,133,7)" stroke-opacity="0.6" stroke-width="2"></path><text x="21" y="15" style="color:#333333;font-size:12px;font-weight:bold;cursor:pointer;fill:#333333;" text-anchor="start"><tspan>Res Memory</tspan></text></g><g class="highcharts-legend-item highcharts-line-series highcharts-color-undefined highcharts-series-2" transform="translate(190.453125,3)"><path fill="none" d="M 0 11 L 16 11" class="highcharts-graph" stroke="rgb(242,133,7)" stroke-opacity="0.6" stroke-width="2"></path><text x="21" y="15" style="color:#333333;font-size:12px;font-weight:bold;cursor:pointer;fill:#333333;" text-anchor="start"><tspan>Virt Memory</tspan></text></g><g class="highcharts-legend-item highcharts-flags-series highcharts-color-0 highcharts-series-3" transform="translate(307.6875,3)"><text x="21" y="15" style="color:#333333;font-size:12px;font-weight:bold;cursor:pointer;fill:#333333;" text-anchor="start"><tspan>Tags</tspan></text><rect x="2" y="4" width="12" height="12" fill="#7cb5ec" rx="6" ry="6" class="highcharts-point"></rect></g><g class="highcharts-legend-item highcharts-column-series highcharts-color-undefined highcharts-series-4" transform="translate(378.71875,3)"><text x="21" y="15" style="color:#333333;font-size:12px;font-weight:bold;cursor:pointer;fill:#333333;" text-anchor="start"><tspan>Work</tspan></text><rect x="2" y="4" width="12" height="12" fill="url(#highcharts-j0jn192-67)" rx="6" ry="6" class="highcharts-point"></rect></g><g class="highcharts-legend-item highcharts-column-series highcharts-color-undefined highcharts-series-5" transform="translate(451.265625,3)"><text x="21" y="15" style="color:#333333;font-size:12px;font-weight:bold;cursor:pointer;fill:#333333;" text-anchor="start"><tspan>Util</tspan></text><rect x="2" y="4" width="12" height="12" fill="url(#highcharts-j0jn192-68)" rx="6" ry="6" class="highcharts-point"></rect></g><g class="highcharts-legend-item highcharts-column-series highcharts-color-undefined highcharts-series-6" transform="translate(513.765625,3)"><text x="21" y="15" style="color:#333333;font-size:12px;font-weight:bold;cursor:pointer;fill:#333333;" text-anchor="start"><tspan>MBytes Read</tspan></text><rect x="2" y="4" width="12" height="12" fill="url(#highcharts-j0jn192-69)" rx="6" ry="6" class="highcharts-point"></rect></g><g class="highcharts-legend-item highcharts-column-series highcharts-color-undefined highcharts-series-7" transform="translate(633.15625,3)"><text x="21" y="15" style="color:#333333;font-size:12px;font-weight:bold;cursor:pointer;fill:#333333;" text-anchor="start"><tspan>MBytes Written</tspan></text><rect x="2" y="4" width="12" height="12" fill="url(#highcharts-j0jn192-70)" rx="6" ry="6" class="highcharts-point"></rect></g></g></g></g><g class="highcharts-navigator" visibility="visible"><rect fill="rgb(255, 255, 255)" fill-opacity=" 0.5" class="highcharts-navigator-mask-outside" x="35" y="714" width="803" height="24"></rect><rect fill="rgb(0,0,0)" fill-opacity="0" class="highcharts-navigator-mask-inside" style="cursor:ew-resize;" x="838" y="714" width="317" height="24"></rect><rect fill="rgb(255, 255, 255)" fill-opacity=" 0.5" class="highcharts-navigator-mask-outside" x="1155" y="714" width="158" height="24"></rect><path fill="none" class="highcharts-navigator-outline" stroke="#cccccc" stroke-width="1" d="M 35 714.5 L 837.5 714.5 L 837.5 738.5 L 1154.5 738.5 L 1154.5 714.5 L 1313 714.5"></path><path fill="#f2f2f2" d="M -4.5 0.5 L 3.5 0.5 L 3.5 15.5 L -4.5 15.5 L -4.5 0.5 M -1.5 4 L -1.5 12 M 0.5 4 L 0.5 12" class="highcharts-navigator-handle highcharts-navigator-handle-right" stroke="#999999" stroke-width="1" style="cursor:ew-resize;" transform="translate(1155,718)"></path><path fill="#f2f2f2" d="M -4.5 0.5 L 3.5 0.5 L 3.5 15.5 L -4.5 15.5 L -4.5 0.5 M -1.5 4 L -1.5 12 M 0.5 4 L 0.5 12" class="highcharts-navigator-handle highcharts-navigator-handle-left" stroke="#999999" stroke-width="1" style="cursor:ew-resize;" transform="translate(838,718)"></path></g></svg>