<?xml version="1.0" standalone="no"?><!DOCTYPE svg PUBLIC "-//W3C//DTD SVG 1.1//EN" "http://www.w3.org/Graphics/SVG/1.1/DTD/svg11.dtd"><svg xmlns:xlink="http://www.w3.org/1999/xlink" version="1.1" class="highcharts-root" style="font-family:'lucida grande', 'lucida sans unicode', arial, helvetica, sans-serif;font-size:12px;" xmlns="http://www.w3.org/2000/svg" width="1428" height="738" viewBox="0 0 1428 738"><desc>Created with Highstock 6.1.0</desc><defs><linearGradient x1="0" x2="0" y1="1" y2="1" id="highcharts-axw5jz7-67"><stop offset="0" stop-color="rgb(64,48,117)" stop-opacity="0.4"></stop><stop offset="1" stop-color="rgb(64,48,117)" stop-opacity="0.2"></stop></linearGradient><linearGradient x1="0" x2="0" y1="1" y2="1" id="highcharts-axw5jz7-68"><stop offset="0" stop-color="rgb(242,133,7)" stop-opacity="0.4"></stop><stop offset="1" stop-color="rgb(242,133,7)" stop-opacity="0.2"></stop></linearGradient><linearGradient x1="100%" x2="40%" y1="100%" y2="95%" id="highcharts-axw5jz7-69"><stop offset="0" stop-color="rgb(69,114,167)" stop-opacity="0.78"></stop><stop offset="1" stop-color="rgb(255,255,255)" stop-opacity="0.6"></stop></linearGradient><linearGradient x1="100%" x2="40%" y1="100%" y2="95%" id="highcharts-axw5jz7-70"><stop offset="0" stop-color="rgb(10,110,10)" stop-opacity="0.78"></stop><stop offset="1" stop-color="rgb(255,255,255)" stop-opacity="0.6"></stop></linearGradient><clipPath id="highcharts-axw5jz7-71"><rect x="0" y="0" width="1278" height="646" fill="none"></rect></clipPath><linearGradient x1="0%" x2="0%" y1="0%" y2="100%" id="highcharts-axw5jz7-72"><stop offset="0" stop-color="rgb(140,20,20)" stop-opacity="0.8"></stop><stop offset="1" stop-color="rgb(255,255,255)" stop-opacity="0.8"></stop></linearGradient><clipPath id="highcharts-axw5jz7-73"><rect x="0" y="0" width="1278" height="646" fill="none"></rect></clipPath><clipPath id="highcharts-axw5jz7-74"><rect x="0" y="0" width="1278" height="646" fill="none"></rect></clipPath><clipPath id="highcharts-axw5jz7-75"><rect x="0" y="0" width="1278" height="646" fill="none"></rect></clipPath><clipPath id="highcharts-axw5jz7-76"><rect x="0" y="0" width="1278" height="24" fill="none"></rect></clipPath></defs><rect fill="#ffffff" class="highcharts-background" x="0" y="0" width="1428" height="738" rx="0" ry="0"></rect><rect fill="none" class="highcharts-plot-background" x="35" y="45" width="1278" height="646"></rect><g class="highcharts-grid highcharts-xaxis-grid "><path fill="none" class="highcharts-grid-line" d="M 66.5 45 L 66.5 691" opacity="1"></path><path fill="none" class="highcharts-grid-line" d="M 699.5 45 L 699.5 691" opacity="1"></path><path fill="none" opacity="1" class="highcharts-grid-line" d="M 172.5 45 L 172.5 691"></path><path fill="none" opacity="1" class="highcharts-grid-line" d="M 277.5 45 L 277.5 691"></path><path fill="none" opacity="1" class="highcharts-grid-line" d="M 383.5 45 L 383.5 691"></path><path fill="none" opacity="1" class="highcharts-grid-line" d="M 488.5 45 L 488.5 691"></path><path fill="none" opacity="1" class="highcharts-grid-line" d="M 594.5 45 L 594.5 691"></path><path fill="none" opacity="1" class="highcharts-grid-line" d="M 805.5 45 L 805.5 691"></path><path fill="none" opacity="1" class="highcharts-grid-line" d="M 910.5 45 L 910.5 691"></path><path fill="none" opacity="1" class="highcharts-grid-line" d="M 1016.5 45 L 1016.5 691"></path><path fill="none" opacity="1" class="highcharts-grid-line" d="M 1121.5 45 L 1121.5 691"></path><path fill="none" opacity="1" class="highcharts-grid-line" d="M 1227.5 45 L 1227.5 691"></path></g><g class="highcharts-grid highcharts-xaxis-grid highcharts-navigator-xaxis"><path fill="none" stroke="#e6e6e6" stroke-width="1" class="highcharts-grid-line" d="M 79.5 714 L 79.5 738" opacity="1"></path><path fill="none" stroke="#e6e6e6" stroke-width="1" class="highcharts-grid-line" d="M 336.5 714 L 336.5 738" opacity="1"></path><path fill="none" stroke="#e6e6e6" stroke-width="1" class="highcharts-grid-line" d="M 593.5 714 L 593.5 738" opacity="1"></path><path fill="none" stroke="#e6e6e6" stroke-width="1" class="highcharts-grid-line" d="M 851.5 714 L 851.5 738" opacity="1"></path><path fill="none" stroke="#e6e6e6" stroke-width="1" class="highcharts-grid-line" d="M 1108.5 714 L 1108.5 738" opacity="1"></path></g><g class="highcharts-grid highcharts-yaxis-grid "><path fill="none" stroke="#e6e6e6" stroke-width="1" class="highcharts-grid-line" d="M 35 691.5 L 1313 691.5" opacity="1"></path><path fill="none" stroke="#e6e6e6" stroke-width="1" class="highcharts-grid-line" d="M 35 632.5 L 1313 632.5" opacity="1"></path><path fill="none" stroke="#e6e6e6" stroke-width="1" class="highcharts-grid-line" d="M 35 574.5 L 1313 574.5" opacity="1"></path><path fill="none" stroke="#e6e6e6" stroke-width="1" class="highcharts-grid-line" d="M 35 515.5 L 1313 515.5" opacity="1"></path><path fill="none" stroke="#e6e6e6" stroke-width="1" class="highcharts-grid-line" d="M 35 456.5 L 1313 456.5" opacity="1"></path><path fill="none" stroke="#e6e6e6" stroke-width="1" class="highcharts-grid-line" d="M 35 397.5 L 1313 397.5" opacity="1"></path><path fill="none" stroke="#e6e6e6" stroke-width="1" class="highcharts-grid-line" d="M 35 339.5 L 1313 339.5" opacity="1"></path><path fill="none" stroke="#e6e6e6" stroke-width="1" class="highcharts-grid-line" d="M 35 280.5 L 1313 280.5" opacity="1"></path><path fill="none" stroke="#e6e6e6" stroke-width="1" class="highcharts-grid-line" d="M 35 221.5 L 1313 221.5" opacity="1"></path><path fill="none" stroke="#e6e6e6" stroke-width="1" class="highcharts-grid-line" d="M 35 162.5 L 1313 162.5" opacity="1"></path><path fill="none" stroke="#e6e6e6" stroke-width="1" class="highcharts-grid-line" d="M 35 104.5 L 1313 104.5" opacity="1"></path><path fill="none" stroke="#e6e6e6" stroke-width="1" class="highcharts-grid-line" d="M 35 44.5 L 1313 44.5" opacity="1"></path></g><g class="highcharts-grid highcharts-yaxis-grid "><path fill="none" class="highcharts-grid-line" d="M 35 691.5 L 1313 691.5" opacity="1"></path><path fill="none" class="highcharts-grid-line" d="M 35 645.5 L 1313 645.5" opacity="1"></path><path fill="none" class="highcharts-grid-line" d="M 35 599.5 L 1313 599.5" opacity="1"></path><path fill="none" class="highcharts-grid-line" d="M 35 553.5 L 1313 553.5" opacity="1"></path><path fill="none" class="highcharts-grid-line" d="M 35 506.5 L 1313 506.5" opacity="1"></path><path fill="none" class="highcharts-grid-line" d="M 35 460.5 L 1313 460.5" opacity="1"></path><path fill="none" class="highcharts-grid-line" d="M 35 414.5 L 1313 414.5" opacity="1"></path><path fill="none" class="highcharts-grid-line" d="M 35 368.5 L 1313 368.5" opacity="1"></path><path fill="none" class="highcharts-grid-line" d="M 35 322.5 L 1313 322.5" opacity="1"></path><path fill="none" class="highcharts-grid-line" d="M 35 276.5 L 1313 276.5" opacity="1"></path><path fill="none" class="highcharts-grid-line" d="M 35 230.5 L 1313 230.5" opacity="1"></path><path fill="none" class="highcharts-grid-line" d="M 35 183.5 L 1313 183.5" opacity="1"></path><path fill="none" class="highcharts-grid-line" d="M 35 137.5 L 1313 137.5" opacity="1"></path><path fill="none" class="highcharts-grid-line" d="M 35 91.5 L 1313 91.5" opacity="1"></path><path fill="none" class="highcharts-grid-line" d="M 35 45.5 L 1313 45.5" opacity="1"></path></g><g class="highcharts-grid highcharts-yaxis-grid "><path fill="none" class="highcharts-grid-line" d="M 35 691.5 L 1313 691.5" opacity="1"></path><path fill="none" class="highcharts-grid-line" d="M 35 641.5 L 1313 641.5" opacity="1"></path><path fill="none" class="highcharts-grid-line" d="M 35 592.5 L 1313 592.5" opacity="1"></path><path fill="none" class="highcharts-grid-line" d="M 35 542.5 L 1313 542.5" opacity="1"></path><path fill="none" class="highcharts-grid-line" d="M 35 492.5 L 1313 492.5" opacity="1"></path><path fill="none" class="highcharts-grid-line" d="M 35 443.5 L 1313 443.5" opacity="1"></path><path fill="none" class="highcharts-grid-line" d="M 35 393.5 L 1313 393.5" opacity="1"></path><path fill="none" class="highcharts-grid-line" d="M 35 343.5 L 1313 343.5" opacity="1"></path><path fill="none" class="highcharts-grid-line" d="M 35 293.5 L 1313 293.5" opacity="1"></path><path fill="none" class="highcharts-grid-line" d="M 35 244.5 L 1313 244.5" opacity="1"></path><path fill="none" class="highcharts-grid-line" d="M 35 194.5 L 1313 194.5" opacity="1"></path><path fill="none" class="highcharts-grid-line" d="M 35 144.5 L 1313 144.5" opacity="1"></path><path fill="none" class="highcharts-grid-line" d="M 35 95.5 L 1313 95.5" opacity="1"></path><path fill="none" class="highcharts-grid-line" d="M 35 45.5 L 1313 45.5" opacity="1"></path></g><g class="highcharts-grid highcharts-yaxis-grid highcharts-navigator-yaxis"><path fill="none" class="highcharts-grid-line" d="M 35 738.5 L 1313 738.5" opacity="1"></path><path fill="none" class="highcharts-grid-line" d="M 35 716.5 L 1313 716.5" opacity="1"></path></g><rect fill="none" class="highcharts-plot-border" x="35" y="45" width="1278" height="646"></rect><g class="highcharts-axis highcharts-xaxis "><path fill="none" class="highcharts-tick" stroke="#ccd6eb" stroke-width="1" d="M 66.5 691 L 66.5 701" opacity="1"></path><path fill="none" class="highcharts-tick" stroke="#ccd6eb" stroke-width="1" d="M 699.5 691 L 699.5 701" opacity="1"></path><path fill="none" class="highcharts-tick" stroke="#ccd6eb" stroke-width="1" d="M 172.5 691 L 172.5 701" opacity="1"></path><path fill="none" class="highcharts-tick" stroke="#ccd6eb" stroke-width="1" d="M 277.5 691 L 277.5 701" opacity="1"></path><path fill="none" class="highcharts-tick" stroke="#ccd6eb" stroke-width="1" d="M 383.5 691 L 383.5 701" opacity="1"></path><path fill="none" class="highcharts-tick" stroke="#ccd6eb" stroke-width="1" d="M 488.5 691 L 488.5 701" opacity="1"></path><path fill="none" class="highcharts-tick" stroke="#ccd6eb" stroke-width="1" d="M 594.5 691 L 594.5 701" opacity="1"></path><path fill="none" class="highcharts-tick" stroke="#ccd6eb" stroke-width="1" d="M 805.5 691 L 805.5 701" opacity="1"></path><path fill="none" class="highcharts-tick" stroke="#ccd6eb" stroke-width="1" d="M 910.5 691 L 910.5 701" opacity="1"></path><path fill="none" class="highcharts-tick" stroke="#ccd6eb" stroke-width="1" d="M 1016.5 691 L 1016.5 701" opacity="1"></path><path fill="none" class="highcharts-tick" stroke="#ccd6eb" stroke-width="1" d="M 1121.5 691 L 1121.5 701" opacity="1"></path><path fill="none" class="highcharts-tick" stroke="#ccd6eb" stroke-width="1" d="M 1227.5 691 L 1227.5 701" opacity="1"></path><path fill="none" class="highcharts-axis-line" stroke="#ccd6eb" stroke-width="1" d="M 35 691.5 L 1313 691.5"></path></g><g class="highcharts-axis highcharts-xaxis highcharts-navigator-xaxis"><path fill="none" class="highcharts-axis-line" d="M 35 738 L 1313 738"></path></g><g class="highcharts-axis highcharts-yaxis "><text x="25" text-anchor="middle" transform="translate(0,0) rotate(270 25 368)" class="highcharts-axis-title" style="color:#aa4643;fill:#aa4643;" y="368"><tspan>CPU Usage</tspan></text><path fill="none" class="highcharts-axis-line" d="M 35 45 L 35 691"></path></g><g class="highcharts-axis highcharts-yaxis "><text x="1323" text-anchor="middle" transform="translate(0,0) rotate(90 1323 368)" class="highcharts-axis-title" style="color:#f28507;fill:#f28507;" y="368"><tspan>Memory</tspan></text><path fill="none" class="highcharts-axis-line" d="M 1313 45 L 1313 691"></path></g><g class="highcharts-axis highcharts-yaxis "><text x="1403" text-anchor="middle" transform="translate(0,0) rotate(90 1403 368)" class="highcharts-axis-title" style="color:#4572a7;fill:#4572a7;" y="368"><tspan>Filesystem Size / IO Throughput</tspan></text><path fill="none" class="highcharts-axis-line" d="M 1393 45 L 1393 691"></path></g><g class="highcharts-axis highcharts-yaxis highcharts-navigator-yaxis"><path fill="none" class="highcharts-axis-line" d="M 35 714 L 35 738"></path></g><g class="highcharts-series-group"><g class="highcharts-series highcharts-series-0 highcharts-areaspline-series " transform="translate(35,45) scale(1 1)" clip-path="url(#highcharts-axw5jz7-73)"><path fill="url(#highcharts-axw5jz7-72)" d="M -18.863939144784 646 C -18.863939144784 646 -18.863939144784 646 -18.863939144784 646 C -18.863939144784 646 6.472108704513602 646 23.362807270712 646 C 40.245064708192004 646 48.686193426932 646 65.568450864412 646 C 82.4591494306112 646 90.90449871371081 646 107.79519727991 646 C 124.68589584610599 646 133.13124512920402 496.24545454545455 150.0219436954 496.24545454545455 C 166.90420113288002 496.24545454545455 175.34532985162 646 192.2275872891 646 C 209.11828585530003 646 217.5636351384 646 234.4543337046 646 C 251.33659114208004 646 259.77771986082 646 276.6599772983 646 C 293.54223473578 646 301.98336345452 646 318.865620892 646 C 335.756319458196 646 344.201668741294 646 361.09236730749 646 C 377.9746247449701 646 386.41575346371 646 403.29801090119 646 C 420.18026833867 646 428.62139705741004 646 445.50365449489 646 C 462.39435306109 646 470.83970234419 646 487.73040091039 646 C 504.61265834787 646 513.05378706661 554.9727272727273 529.93604450409 437.5181818181818 C 546.81830194157 320.06363636363636 555.25943066031 58.72727272727275 572.14168809779 58.72727272727275 C 589.0323866639901 58.72727272727275 597.47773594709 59.02090909090907 614.36843451329 59.02090909090907 C 631.2506919507659 59.02090909090907 639.691820669504 55.790909090909054 656.57407810698 55.790909090909054 C 673.45633554446 55.790909090909054 681.8974642631999 58.72727272727275 698.77972170068 58.72727272727275 C 715.6619791381601 58.72727272727275 724.1031078569 58.72727272727275 740.98536529438 58.72727272727275 C 757.8676227318599 58.72727272727275 766.3087514506 58.72727272727275 783.19100888808 58.72727272727275 C 800.0817074542799 58.72727272727275 808.52705673738 58.72727272727275 825.41775530358 59.02090909090907 C 842.30001274106 59.314545454545396 850.7411414598 96.89999999999998 867.62339889728 96.89999999999998 C 884.50565633476 96.89999999999998 892.9467850535 67.5363636363636 909.82904249098 61.66363636363633 C 926.71129992846 55.790909090909054 935.1524286472 55.790909090909054 952.03468608468 55.790909090909054 C 968.925384650876 55.790909090909054 977.3707339339741 59.02090909090907 994.26143250017 59.02090909090907 C 1011.143689937662 59.02090909090907 1019.5848186564081 58.72727272727275 1036.4670760939 58.72727272727275 C 1053.3493335313801 58.72727272727275 1061.7904622501198 287.79299266093017 1078.6727196876 405.21818181818185 C 1095.5634182538001 522.7020835700212 1104.0087675369 646 1120.8994661031 646 C 1137.7817235405798 646 1146.22285225932 646 1163.1051096968 646 C 1179.98736713428 646 1188.42849585302 646 1205.3107532905 646 C 1222.2014518567 646 1230.6468011398001 646 1247.537499706 646 C 1264.4197571434802 646 1272.86088586222 646 1289.7431432997 646 C 1306.6254007371801 646 1315.0665294559199 646 1331.9487868934 646 C 1348.8394854596 646 1357.2848347427 646 1374.1755333089 646 C 1391.0577907463799 646 1399.49891946512 646 1416.3811769026 646 C 1433.26343434008 646 1441.70456305882 646 1458.5868204963 646 C 1475.4775190625 646 1483.9228683456 646 1500.8135669118 646 C 1517.6958243492802 646 1526.13695306802 646 1543.0192105055 646 C 1559.90990907166 646 1568.35525835474 646 1585.2459569209 646 C 1602.1282143583799 646 1610.56934307712 646 1627.4516005146 646 C 1644.33385795208 646 1669.6572441083 646 1669.6572441083 646 L 1669.6572441083 646 C 1669.6572441083 646 1644.33385795208 646 1627.4516005146 646 C 1610.56934307712 646 1602.1282143583799 646 1585.2459569209 646 C 1568.35525835474 646 1559.90990907166 646 1543.0192105055 646 C 1526.13695306802 646 1517.6958243492802 646 1500.8135669118 646 C 1483.9228683456 646 1475.4775190625 646 1458.5868204963 646 C 1441.70456305882 646 1433.26343434008 646 1416.3811769026 646 C 1399.49891946512 646 1391.0577907463799 646 1374.1755333089 646 C 1357.2848347427 646 1348.8394854596 646 1331.9487868934 646 C 1315.0665294559199 646 1306.6254007371801 646 1289.7431432997 646 C 1272.86088586222 646 1264.4197571434802 646 1247.537499706 646 C 1230.6468011398001 646 1222.2014518567 646 1205.3107532905 646 C 1188.42849585302 646 1179.98736713428 646 1163.1051096968 646 C 1146.22285225932 646 1137.7817235405798 646 1120.8994661031 646 C 1104.0087675369 646 1095.5634182538001 646 1078.6727196876 646 C 1061.7904622501198 646 1053.3493335313801 646 1036.4670760939 646 C 1019.5848186564081 646 1011.143689937662 646 994.26143250017 646 C 977.3707339339741 646 968.925384650876 646 952.03468608468 646 C 935.1524286472 646 926.71129992846 646 909.82904249098 646 C 892.9467850535 646 884.50565633476 646 867.62339889728 646 C 850.7411414598 646 842.30001274106 646 825.41775530358 646 C 808.52705673738 646 800.0817074542799 646 783.19100888808 646 C 766.3087514506 646 757.8676227318599 646 740.98536529438 646 C 724.1031078569 646 715.6619791381601 646 698.77972170068 646 C 681.8974642631999 646 673.45633554446 646 656.57407810698 646 C 639.691820669504 646 631.2506919507659 646 614.36843451329 646 C 597.47773594709 646 589.0323866639901 646 572.14168809779 646 C 555.25943066031 646 546.81830194157 646 529.93604450409 646 C 513.05378706661 646 504.61265834787 646 487.73040091039 646 C 470.83970234419 646 462.39435306109 646 445.50365449489 646 C 428.62139705741004 646 420.18026833867 646 403.29801090119 646 C 386.41575346371 646 377.9746247449701 646 361.09236730749 646 C 344.201668741294 646 335.756319458196 646 318.865620892 646 C 301.98336345452 646 293.54223473578 646 276.6599772983 646 C 259.77771986082 646 251.33659114208004 646 234.4543337046 646 C 217.5636351384 646 209.11828585530003 646 192.2275872891 646 C 175.34532985162 646 166.90420113288002 646 150.0219436954 646 C 133.13124512920402 646 124.68589584610599 646 107.79519727991 646 C 90.90449871371081 646 82.4591494306112 646 65.568450864412 646 C 48.686193426932 646 40.245064708192004 646 23.362807270712 646 C 6.472108704513602 646 -18.863939144784 646 -18.863939144784 646 C -18.863939144784 646 -18.863939144784 646 -18.863939144784 646" class="highcharts-area"></path><path fill="none" d="M -18.863939144784 646 C -18.863939144784 646 6.472108704513602 646 23.362807270712 646 C 40.245064708192004 646 48.686193426932 646 65.568450864412 646 C 82.4591494306112 646 90.90449871371081 646 107.79519727991 646 C 124.68589584610599 646 133.13124512920402 496.24545454545455 150.0219436954 496.24545454545455 C 166.90420113288002 496.24545454545455 175.34532985162 646 192.2275872891 646 C 209.11828585530003 646 217.5636351384 646 234.4543337046 646 C 251.33659114208004 646 259.77771986082 646 276.6599772983 646 C 293.54223473578 646 301.98336345452 646 318.865620892 646 C 335.756319458196 646 344.201668741294 646 361.09236730749 646 C 377.9746247449701 646 386.41575346371 646 403.29801090119 646 C 420.18026833867 646 428.62139705741004 646 445.50365449489 646 C 462.39435306109 646 470.83970234419 646 487.73040091039 646 C 504.61265834787 646 513.05378706661 554.9727272727273 529.93604450409 437.5181818181818 C 546.81830194157 320.06363636363636 555.25943066031 58.72727272727275 572.14168809779 58.72727272727275 C 589.0323866639901 58.72727272727275 597.47773594709 59.02090909090907 614.36843451329 59.02090909090907 C 631.2506919507659 59.02090909090907 639.691820669504 55.790909090909054 656.57407810698 55.790909090909054 C 673.45633554446 55.790909090909054 681.8974642631999 58.72727272727275 698.77972170068 58.72727272727275 C 715.6619791381601 58.72727272727275 724.1031078569 58.72727272727275 740.98536529438 58.72727272727275 C 757.8676227318599 58.72727272727275 766.3087514506 58.72727272727275 783.19100888808 58.72727272727275 C 800.0817074542799 58.72727272727275 808.52705673738 58.72727272727275 825.41775530358 59.02090909090907 C 842.30001274106 59.314545454545396 850.7411414598 96.89999999999998 867.62339889728 96.89999999999998 C 884.50565633476 96.89999999999998 892.9467850535 67.5363636363636 909.82904249098 61.66363636363633 C 926.71129992846 55.790909090909054 935.1524286472 55.790909090909054 952.03468608468 55.790909090909054 C 968.925384650876 55.790909090909054 977.3707339339741 59.02090909090907 994.26143250017 59.02090909090907 C 1011.143689937662 59.02090909090907 1019.5848186564081 58.72727272727275 1036.4670760939 58.72727272727275 C 1053.3493335313801 58.72727272727275 1061.7904622501198 287.79299266093017 1078.6727196876 405.21818181818185 C 1095.5634182538001 522.7020835700212 1104.0087675369 646 1120.8994661031 646 C 1137.7817235405798 646 1146.22285225932 646 1163.1051096968 646 C 1179.98736713428 646 1188.42849585302 646 1205.3107532905 646 C 1222.2014518567 646 1230.6468011398001 646 1247.537499706 646 C 1264.4197571434802 646 1272.86088586222 646 1289.7431432997 646 C 1306.6254007371801 646 1315.0665294559199 646 1331.9487868934 646 C 1348.8394854596 646 1357.2848347427 646 1374.1755333089 646 C 1391.0577907463799 646 1399.49891946512 646 1416.3811769026 646 C 1433.26343434008 646 1441.70456305882 646 1458.5868204963 646 C 1475.4775190625 646 1483.9228683456 646 1500.8135669118 646 C 1517.6958243492802 646 1526.13695306802 646 1543.0192105055 646 C 1559.90990907166 646 1568.35525835474 646 1585.2459569209 646 C 1602.1282143583799 646 1610.56934307712 646 1627.4516005146 646 C 1644.33385795208 646 1669.6572441083 646 1669.6572441083 646" class="highcharts-graph" stroke="rgb(170,70,67)" stroke-width="2" stroke-linejoin="round" stroke-linecap="round"></path></g><g class="highcharts-markers highcharts-series-0 highcharts-areaspline-series " transform="translate(35,45) scale(1 1)" clip-path="none"></g><g class="highcharts-series highcharts-series-1 highcharts-spline-series " transform="translate(35,45) scale(1 1)" clip-path="url(#highcharts-axw5jz7-74)"><path fill="none" d="M -18.863939144784 633.5322 C -18.863939144784 633.5322 6.472108704513602 633.5322 23.362807270712 633.5322 C 40.245064708192004 633.5322 48.686193426932 633.5322 65.568450864412 633.5322 C 82.4591494306112 633.5322 90.90449871371081 633.5322 107.79519727991 633.5322 C 124.68589584610599 633.5322 133.13124512920402 631.2804285714286 150.0219436954 631.2804285714286 C 166.90420113288002 631.2804285714286 175.34532985162 631.2804285714286 192.2275872891 631.2804285714286 C 209.11828585530003 631.2804285714286 217.5636351384 631.2804285714286 234.4543337046 631.2804285714286 C 251.33659114208004 631.2804285714286 259.77771986082 631.2804285714286 276.6599772983 631.2804285714286 C 293.54223473578 631.2804285714286 301.98336345452 631.2804285714286 318.865620892 631.2804285714286 C 335.756319458196 631.2804285714286 344.201668741294 631.2804285714286 361.09236730749 631.2804285714286 C 377.9746247449701 631.2804285714286 386.41575346371 631.2804285714286 403.29801090119 631.2804285714286 C 420.18026833867 631.2804285714286 428.62139705741004 631.2804285714286 445.50365449489 631.2804285714286 C 462.39435306109 631.2804285714286 470.83970234419 631.2804285714286 487.73040091039 631.2804285714286 C 504.61265834787 631.2804285714286 513.05378706661 631.2527428571428 529.93604450409 631.2527428571428 C 546.81830194157 631.2527428571428 555.25943066031 631.2527428571428 572.14168809779 631.2527428571428 C 589.0323866639901 631.2527428571428 597.47773594709 631.2527428571428 614.36843451329 631.2527428571428 C 631.2506919507659 631.2527428571428 639.691820669504 631.2527428571428 656.57407810698 631.2527428571428 C 673.45633554446 631.2527428571428 681.8974642631999 631.2527428571428 698.77972170068 631.2527428571428 C 715.6619791381601 631.2527428571428 724.1031078569 631.2527428571428 740.98536529438 631.2527428571428 C 757.8676227318599 631.2527428571428 766.3087514506 631.2527428571428 783.19100888808 631.2527428571428 C 800.0817074542799 631.2527428571428 808.52705673738 631.2527428571428 825.41775530358 631.2527428571428 C 842.30001274106 631.2527428571428 850.7411414598 631.2527428571428 867.62339889728 631.2527428571428 C 884.50565633476 631.2527428571428 892.9467850535 631.2527428571428 909.82904249098 631.2527428571428 C 926.71129992846 631.2527428571428 935.1524286472 631.2527428571428 952.03468608468 631.2527428571428 C 968.925384650876 631.2527428571428 977.3707339339741 631.2527428571428 994.26143250017 631.2527428571428 C 1011.143689937662 631.2527428571428 1019.5848186564081 631.2527428571428 1036.4670760939 631.2527428571428 C 1053.3493335313801 631.2527428571428 1061.7904622501198 631.2527428571428 1078.6727196876 631.2527428571428 C 1095.5634182538001 631.2527428571428 1104.0087675369 631.2527428571428 1120.8994661031 631.2527428571428 C 1137.7817235405798 631.2527428571428 1146.22285225932 631.2527428571428 1163.1051096968 631.2527428571428 C 1179.98736713428 631.2527428571428 1188.42849585302 631.2527428571428 1205.3107532905 631.2527428571428 C 1222.2014518567 631.2527428571428 1230.6468011398001 631.2527428571428 1247.537499706 631.2527428571428 C 1264.4197571434802 631.2527428571428 1272.86088586222 631.2527428571428 1289.7431432997 631.2527428571428 C 1306.6254007371801 631.2527428571428 1315.0665294559199 631.2527428571428 1331.9487868934 631.2527428571428 C 1348.8394854596 631.2527428571428 1357.2848347427 631.2527428571428 1374.1755333089 631.2527428571428 C 1391.0577907463799 631.2527428571428 1399.49891946512 631.2527428571428 1416.3811769026 631.2527428571428 C 1433.26343434008 631.2527428571428 1441.70456305882 631.2527428571428 1458.5868204963 631.2527428571428 C 1475.4775190625 631.2527428571428 1483.9228683456 631.2527428571428 1500.8135669118 631.2527428571428 C 1517.6958243492802 631.2527428571428 1526.13695306802 631.2527428571428 1543.0192105055 631.2527428571428 C 1559.90990907166 631.2527428571428 1568.35525835474 631.2527428571428 1585.2459569209 631.2527428571428 C 1602.1282143583799 631.2527428571428 1610.56934307712 631.2527428571428 1627.4516005146 631.2527428571428 C 1644.33385795208 631.2527428571428 1669.6572441083 631.2527428571428 1669.6572441083 631.2527428571428" class="highcharts-graph" stroke="rgb(242,133,7)" stroke-opacity="0.6" stroke-width="2" stroke-linejoin="round" stroke-linecap="round"></path></g><g class="highcharts-markers highcharts-series-1 highcharts-spline-series " transform="translate(35,45) scale(1 1)" clip-path="none"></g><g class="highcharts-series highcharts-series-2 highcharts-line-series " transform="translate(35,45) scale(1 1)" clip-path="url(#highcharts-axw5jz7-74)"><path fill="none" d="M -18.863939144784 144.0949142857143 L 23.362807270712 144.0949142857143 L 65.568450864412 144.0949142857143 L 107.79519727991 144.0949142857143 L 150.0219436954 64.21240000000012 L 192.2275872891 64.21240000000012 L 234.4543337046 64.21240000000012 L 276.6599772983 64.21240000000012 L 318.865620892 64.21240000000012 L 361.09236730749 64.21240000000012 L 403.29801090119 64.21240000000012 L 445.50365449489 64.21240000000012 L 487.73040091039 64.21240000000012 L 529.93604450409 64.21240000000012 L 572.14168809779 64.21240000000012 L 614.36843451329 64.21240000000012 L 656.57407810698 64.21240000000012 L 698.77972170068 64.21240000000012 L 740.98536529438 64.21240000000012 L 783.19100888808 64.21240000000012 L 825.41775530358 64.21240000000012 L 867.62339889728 64.21240000000012 L 909.82904249098 64.21240000000012 L 952.03468608468 64.21240000000012 L 994.26143250017 64.21240000000012 L 1036.4670760939 64.21240000000012 L 1078.6727196876 64.21240000000012 L 1120.8994661031 64.21240000000012 L 1163.1051096968 64.21240000000012 L 1205.3107532905 64.21240000000012 L 1247.537499706 64.21240000000012 L 1289.7431432997 64.21240000000012 L 1331.9487868934 64.21240000000012 L 1374.1755333089 64.21240000000012 L 1416.3811769026 64.21240000000012 L 1458.5868204963 64.21240000000012 L 1500.8135669118 64.21240000000012 L 1543.0192105055 64.21240000000012 L 1585.2459569209 64.21240000000012 L 1627.4516005146 64.21240000000012 L 1669.6572441083 64.21240000000012" class="highcharts-graph" stroke="rgb(242,133,7)" stroke-opacity="0.6" stroke-width="2" stroke-linejoin="round" stroke-linecap="round"></path></g><g class="highcharts-markers highcharts-series-2 highcharts-line-series " transform="translate(35,45) scale(1 1)" clip-path="none"></g><g class="highcharts-series highcharts-series-4 highcharts-column-series " transform="translate(35,45) scale(1 1)" clip-path="url(#highcharts-axw5jz7-75)"><rect x="182" y="647" width="35" height="0" fill="url(#highcharts-axw5jz7-67)" rx="4" ry="4" stroke="rgb(64,48,117)" stroke-width="2" class="highcharts-point"></rect><rect x="435" y="647" width="35" height="0" fill="url(#highcharts-axw5jz7-67)" rx="4" ry="4" stroke="rgb(64,48,117)" stroke-width="2" class="highcharts-point"></rect><rect x="688" y="383" width="35" height="264" fill="url(#highcharts-axw5jz7-67)" rx="4" ry="4" stroke="rgb(64,48,117)" stroke-width="2" class="highcharts-point"></rect><rect x="942" y="45" width="35" height="602" fill="url(#highcharts-axw5jz7-67)" rx="4" ry="4" stroke="rgb(64,48,117)" stroke-width="2" class="highcharts-point"></rect></g><g class="highcharts-markers highcharts-series-4 highcharts-column-series " transform="translate(35,45) scale(1 1)" clip-path="none"></g><g class="highcharts-series highcharts-series-5 highcharts-column-series " transform="translate(35,45) scale(1 1)" clip-path="url(#highcharts-axw5jz7-75)"></g><g class="highcharts-markers highcharts-series-5 highcharts-column-series " transform="translate(35,45) scale(1 1)" clip-path="none"></g><g class="highcharts-series highcharts-series-6 highcharts-column-series " transform="translate(35,45) scale(1 1)" clip-path="url(#highcharts-axw5jz7-75)"></g><g class="highcharts-markers highcharts-series-6 highcharts-column-series " transform="translate(35,45) scale(1 1)" clip-path="none"></g><g class="highcharts-series highcharts-series-7 highcharts-column-series " transform="translate(35,45) scale(1 1)" clip-path="url(#highcharts-axw5jz7-75)"><rect x="163" y="647" width="17" height="0" fill="url(#highcharts-axw5jz7-70)" rx="4" ry="4" stroke="rgb(10,110,10)" stroke-opacity="0.4" stroke-width="2" class="highcharts-point"></rect><rect x="543" y="636" width="17" height="11" fill="url(#highcharts-axw5jz7-70)" rx="4" ry="4" stroke="rgb(10,110,10)" stroke-opacity="0.4" stroke-width="2" class="highcharts-point"></rect><rect x="585" y="617" width="17" height="30" fill="url(#highcharts-axw5jz7-70)" rx="4" ry="4" stroke="rgb(10,110,10)" stroke-opacity="0.4" stroke-width="2" class="highcharts-point"></rect><rect x="627" y="617" width="17" height="30" fill="url(#highcharts-axw5jz7-70)" rx="4" ry="4" stroke="rgb(10,110,10)" stroke-opacity="0.4" stroke-width="2" class="highcharts-point"></rect><rect x="669" y="617" width="17" height="30" fill="url(#highcharts-axw5jz7-70)" rx="4" ry="4" stroke="rgb(10,110,10)" stroke-opacity="0.4" stroke-width="2" class="highcharts-point"></rect><rect x="711" y="617" width="17" height="30" fill="url(#highcharts-axw5jz7-70)" rx="4" ry="4" stroke="rgb(10,110,10)" stroke-opacity="0.4" stroke-width="2" class="highcharts-point"></rect><rect x="754" y="617" width="17" height="30" fill="url(#highcharts-axw5jz7-70)" rx="4" ry="4" stroke="rgb(10,110,10)" stroke-opacity="0.4" stroke-width="2" class="highcharts-point"></rect><rect x="796" y="617" width="17" height="30" fill="url(#highcharts-axw5jz7-70)" rx="4" ry="4" stroke="rgb(10,110,10)" stroke-opacity="0.4" stroke-width="2" class="highcharts-point"></rect><rect x="838" y="621" width="17" height="26" fill="url(#highcharts-axw5jz7-70)" rx="4" ry="4" stroke="rgb(10,110,10)" stroke-opacity="0.4" stroke-width="2" class="highcharts-point"></rect><rect x="880" y="625" width="17" height="22" fill="url(#highcharts-axw5jz7-70)" rx="4" ry="4" stroke="rgb(10,110,10)" stroke-opacity="0.4" stroke-width="2" class="highcharts-point"></rect><rect x="922" y="617" width="17" height="30" fill="url(#highcharts-axw5jz7-70)" rx="4" ry="4" stroke="rgb(10,110,10)" stroke-opacity="0.4" stroke-width="2" class="highcharts-point"></rect><rect x="965" y="617" width="17" height="30" fill="url(#highcharts-axw5jz7-70)" rx="4" ry="4" stroke="rgb(10,110,10)" stroke-opacity="0.4" stroke-width="2" class="highcharts-point"></rect><rect x="1007" y="617" width="17" height="30" fill="url(#highcharts-axw5jz7-70)" rx="4" ry="4" stroke="rgb(10,110,10)" stroke-opacity="0.4" stroke-width="2" class="highcharts-point"></rect><rect x="1049" y="617" width="17" height="30" fill="url(#highcharts-axw5jz7-70)" rx="4" ry="4" stroke="rgb(10,110,10)" stroke-opacity="0.4" stroke-width="2" class="highcharts-point"></rect><rect x="1091" y="636" width="17" height="11" fill="url(#highcharts-axw5jz7-70)" rx="4" ry="4" stroke="rgb(10,110,10)" stroke-opacity="0.4" stroke-width="2" class="highcharts-point"></rect></g><g class="highcharts-markers highcharts-series-7 highcharts-column-series " transform="translate(35,45) scale(1 1)" clip-path="none"></g><g class="highcharts-series highcharts-series-8 highcharts-column-series highcharts-color-1 " visibility="hidden" transform="translate(35,45) scale(1 1)" clip-path="url(#highcharts-axw5jz7-75)"></g><g class="highcharts-markers highcharts-series-8 highcharts-column-series highcharts-color-1 " visibility="hidden" transform="translate(35,45) scale(1 1)" clip-path="none"></g><g class="highcharts-series highcharts-series-9 highcharts-areaspline-series highcharts-navigator-series" transform="translate(35,714) scale(1 1)" clip-path="url(#highcharts-axw5jz7-76)"><path fill="url(#highcharts-axw5jz7-72)" d="M 934.86883166563 24 C 934.86883166563 24 934.86883166563 24 934.86883166563 24 C 934.86883166563 24 940.017471662404 24 943.44989832692 24 C 946.8806096357879 24 948.595965290222 24 952.02667659909 24 C 955.459103263606 24 957.175316595864 24 960.60774326038 24 C 964.0401699248999 24 965.7563832571599 18.4640434192673 969.18880992168 18.4640434192673 C 972.619521230544 18.4640434192673 974.3348768849761 24 977.76558819384 24 C 981.19801485836 24 982.91422819062 24 986.34665485514 24 C 989.777366164004 24 991.4927218184359 24 994.9234331273 24 C 998.3541444361799 24 1000.0695000906201 24 1003.5002113995 24 C 1006.9326380640199 24 1008.6488513962801 24 1012.0812780608 24 C 1015.5119893696399 24 1017.22734502406 24 1020.6580563329 24 C 1024.0887676417801 24 1025.80412329622 24 1029.2348346051 24 C 1032.66726126962 24 1034.3834746018802 24 1037.8159012664 24 C 1041.24661257524 24 1042.9619682296602 20.635006784235053 1046.3926795385 16.293080054274085 C 1049.82339084738 11.951153324262187 1051.53874650182 2.290366350067842 1054.9694578107 2.290366350067842 C 1058.4018844752202 2.290366350067842 1060.1180978074801 2.3012211668928053 1063.550524472 2.3012211668928053 C 1066.98123578088 2.3012211668928053 1068.69659143532 2.18181818181818 1072.1273027442 2.18181818181818 C 1075.55801405304 2.18181818181818 1077.27336970746 2.290366350067842 1080.7040810163 2.290366350067842 C 1084.1347923251801 2.290366350067842 1085.85014797962 2.290366350067842 1089.2808592885 2.290366350067842 C 1092.71157059738 2.290366350067842 1094.4269262518199 2.290366350067842 1097.8576375607 2.290366350067842 C 1101.29006422518 2.290366350067842 1103.00627755742 2.290366350067842 1106.4387042219 2.3012211668928053 C 1109.8694155307799 2.3120759837177687 1111.58477118522 3.701492537313431 1115.0154824941 3.701492537313431 C 1118.44619380298 3.701492537313431 1120.16154945742 2.616010854816828 1123.5922607663 2.398914518317504 C 1127.02297207514 2.18181818181818 1128.7383277295598 2.18181818181818 1132.1690390384 2.18181818181818 C 1135.6014657029198 2.18181818181818 1137.3176790351802 2.3012211668928053 1140.7501056997 2.3012211668928053 C 1144.18081700858 2.3012211668928053 1145.89617266302 2.290366350067842 1149.3268839719 2.290366350067842 C 1152.75759528078 2.290366350067842 1154.47295093522 10.758208683912326 1157.9036622441 15.099050203527815 C 1161.33608890862 19.442062143885188 1163.0523022408802 24 1166.4847289054 24 C 1169.91544021424 24 1171.63079586866 24 1175.0615071775 24 C 1178.4922184863801 24 1180.20757414082 24 1183.6382854497 24 C 1187.07071211422 24 1188.78692544648 24 1192.219352111 24 C 1195.65006341984 24 1197.36541907426 24 1200.7961303831 24 C 1204.22684169198 24 1205.94219734642 24 1209.3729086553 24 C 1212.80533531982 24 1214.52154865208 24 1217.9539753166 24 C 1221.38468662548 24 1223.10004227992 24 1226.5307535888 24 C 1229.9614648976399 24 1231.67682055206 24 1235.1075318609 24 C 1238.53995852542 24 1240.25617185768 24 1243.6885985222 24 C 1247.11930983108 24 1248.83466548552 24 1252.2653767944 24 C 1255.69780345892 24 1257.4140167911798 24 1260.8464434557 24 C 1264.27715476454 24 1265.99251041896 24 1269.4232217278 24 C 1272.8539330366798 24 1278 24 1278 24 L 1278 24 C 1278 24 1272.8539330366798 24 1269.4232217278 24 C 1265.99251041896 24 1264.27715476454 24 1260.8464434557 24 C 1257.4140167911798 24 1255.69780345892 24 1252.2653767944 24 C 1248.83466548552 24 1247.11930983108 24 1243.6885985222 24 C 1240.25617185768 24 1238.53995852542 24 1235.1075318609 24 C 1231.67682055206 24 1229.9614648976399 24 1226.5307535888 24 C 1223.10004227992 24 1221.38468662548 24 1217.9539753166 24 C 1214.52154865208 24 1212.80533531982 24 1209.3729086553 24 C 1205.94219734642 24 1204.22684169198 24 1200.7961303831 24 C 1197.36541907426 24 1195.65006341984 24 1192.219352111 24 C 1188.78692544648 24 1187.07071211422 24 1183.6382854497 24 C 1180.20757414082 24 1178.4922184863801 24 1175.0615071775 24 C 1171.63079586866 24 1169.91544021424 24 1166.4847289054 24 C 1163.0523022408802 24 1161.33608890862 24 1157.9036622441 24 C 1154.47295093522 24 1152.75759528078 24 1149.3268839719 24 C 1145.89617266302 24 1144.18081700858 24 1140.7501056997 24 C 1137.3176790351802 24 1135.6014657029198 24 1132.1690390384 24 C 1128.7383277295598 24 1127.02297207514 24 1123.5922607663 24 C 1120.16154945742 24 1118.44619380298 24 1115.0154824941 24 C 1111.58477118522 24 1109.8694155307799 24 1106.4387042219 24 C 1103.00627755742 24 1101.29006422518 24 1097.8576375607 24 C 1094.4269262518199 24 1092.71157059738 24 1089.2808592885 24 C 1085.85014797962 24 1084.1347923251801 24 1080.7040810163 24 C 1077.27336970746 24 1075.55801405304 24 1072.1273027442 24 C 1068.69659143532 24 1066.98123578088 24 1063.550524472 24 C 1060.1180978074801 24 1058.4018844752202 24 1054.9694578107 24 C 1051.53874650182 24 1049.82339084738 24 1046.3926795385 24 C 1042.9619682296602 24 1041.24661257524 24 1037.8159012664 24 C 1034.3834746018802 24 1032.66726126962 24 1029.2348346051 24 C 1025.80412329622 24 1024.0887676417801 24 1020.6580563329 24 C 1017.22734502406 24 1015.5119893696399 24 1012.0812780608 24 C 1008.6488513962801 24 1006.9326380640199 24 1003.5002113995 24 C 1000.0695000906201 24 998.3541444361799 24 994.9234331273 24 C 991.4927218184359 24 989.777366164004 24 986.34665485514 24 C 982.91422819062 24 981.19801485836 24 977.76558819384 24 C 974.3348768849761 24 972.619521230544 24 969.18880992168 24 C 965.7563832571599 24 964.0401699248999 24 960.60774326038 24 C 957.175316595864 24 955.459103263606 24 952.02667659909 24 C 948.595965290222 24 946.8806096357879 24 943.44989832692 24 C 940.017471662404 24 934.86883166563 24 934.86883166563 24 C 934.86883166563 24 934.86883166563 24 934.86883166563 24" class="highcharts-area"></path><path fill="none" d="M 934.86883166563 24 C 934.86883166563 24 940.017471662404 24 943.44989832692 24 C 946.8806096357879 24 948.595965290222 24 952.02667659909 24 C 955.459103263606 24 957.175316595864 24 960.60774326038 24 C 964.0401699248999 24 965.7563832571599 18.4640434192673 969.18880992168 18.4640434192673 C 972.619521230544 18.4640434192673 974.3348768849761 24 977.76558819384 24 C 981.19801485836 24 982.91422819062 24 986.34665485514 24 C 989.777366164004 24 991.4927218184359 24 994.9234331273 24 C 998.3541444361799 24 1000.0695000906201 24 1003.5002113995 24 C 1006.9326380640199 24 1008.6488513962801 24 1012.0812780608 24 C 1015.5119893696399 24 1017.22734502406 24 1020.6580563329 24 C 1024.0887676417801 24 1025.80412329622 24 1029.2348346051 24 C 1032.66726126962 24 1034.3834746018802 24 1037.8159012664 24 C 1041.24661257524 24 1042.9619682296602 20.635006784235053 1046.3926795385 16.293080054274085 C 1049.82339084738 11.951153324262187 1051.53874650182 2.290366350067842 1054.9694578107 2.290366350067842 C 1058.4018844752202 2.290366350067842 1060.1180978074801 2.3012211668928053 1063.550524472 2.3012211668928053 C 1066.98123578088 2.3012211668928053 1068.69659143532 2.18181818181818 1072.1273027442 2.18181818181818 C 1075.55801405304 2.18181818181818 1077.27336970746 2.290366350067842 1080.7040810163 2.290366350067842 C 1084.1347923251801 2.290366350067842 1085.85014797962 2.290366350067842 1089.2808592885 2.290366350067842 C 1092.71157059738 2.290366350067842 1094.4269262518199 2.290366350067842 1097.8576375607 2.290366350067842 C 1101.29006422518 2.290366350067842 1103.00627755742 2.290366350067842 1106.4387042219 2.3012211668928053 C 1109.8694155307799 2.3120759837177687 1111.58477118522 3.701492537313431 1115.0154824941 3.701492537313431 C 1118.44619380298 3.701492537313431 1120.16154945742 2.616010854816828 1123.5922607663 2.398914518317504 C 1127.02297207514 2.18181818181818 1128.7383277295598 2.18181818181818 1132.1690390384 2.18181818181818 C 1135.6014657029198 2.18181818181818 1137.3176790351802 2.3012211668928053 1140.7501056997 2.3012211668928053 C 1144.18081700858 2.3012211668928053 1145.89617266302 2.290366350067842 1149.3268839719 2.290366350067842 C 1152.75759528078 2.290366350067842 1154.47295093522 10.758208683912326 1157.9036622441 15.099050203527815 C 1161.33608890862 19.442062143885188 1163.0523022408802 24 1166.4847289054 24 C 1169.91544021424 24 1171.63079586866 24 1175.0615071775 24 C 1178.4922184863801 24 1180.20757414082 24 1183.6382854497 24 C 1187.07071211422 24 1188.78692544648 24 1192.219352111 24 C 1195.65006341984 24 1197.36541907426 24 1200.7961303831 24 C 1204.22684169198 24 1205.94219734642 24 1209.3729086553 24 C 1212.80533531982 24 1214.52154865208 24 1217.9539753166 24 C 1221.38468662548 24 1223.10004227992 24 1226.5307535888 24 C 1229.9614648976399 24 1231.67682055206 24 1235.1075318609 24 C 1238.53995852542 24 1240.25617185768 24 1243.6885985222 24 C 1247.11930983108 24 1248.83466548552 24 1252.2653767944 24 C 1255.69780345892 24 1257.4140167911798 24 1260.8464434557 24 C 1264.27715476454 24 1265.99251041896 24 1269.4232217278 24 C 1272.8539330366798 24 1278 24 1278 24" class="highcharts-graph" stroke="rgb(170,70,67)" stroke-width="1" stroke-linejoin="round" stroke-linecap="round"></path></g><g class="highcharts-markers highcharts-series-9 highcharts-areaspline-series highcharts-navigator-series" transform="translate(35,714) scale(1 1)" clip-path="none"></g><g class="highcharts-series highcharts-series-3 highcharts-flags-series highcharts-color-0 " transform="translate(35,45) scale(1 1)" clip-path="url(#highcharts-axw5jz7-71)"></g><g class="highcharts-markers highcharts-series-3 highcharts-flags-series highcharts-color-0 " transform="translate(35,45) scale(1 1)"><g class="highcharts-label highcharts-point" transform="translate(1041,604)"><path fill="#DDAAAA" class="highcharts-label-box" d="M 0.5 0.5 L 78.5 0.5 78.5 19.5 0.5 19.5 Z M 39.75 19.5 L 39.5 30.25454545454545 M 40.5 30.25454545454545 A 1 1 0 1 1 40.499999500000044 30.253545454712118 Z" stroke="#7cb5ec" stroke-width="1"></path><text x="3" style="font-size:11px;font-weight:bold;" y="14">LIST_MACRO</text></g><g class="highcharts-label highcharts-point" transform="translate(534,604)"><path fill="#DDAAAA" class="highcharts-label-box" d="M 0.5 0.5 L 78.5 0.5 78.5 19.5 0.5 19.5 Z M 39.75 19.5 L 39.5 30.25454545454545 M 40.5 30.25454545454545 A 1 1 0 1 1 40.499999500000044 30.253545454712118 Z" stroke="#7cb5ec" stroke-width="1"></path><text x="3" style="font-size:11px;font-weight:bold;" y="14">LIST_MACRO</text></g><g class="highcharts-label highcharts-point" transform="translate(164,604)"><path fill="#DDAAAA" class="highcharts-label-box" d="M 0.5 0.5 L 58.5 0.5 58.5 19.5 0.5 19.5 Z M 29.75 19.5 L 29.5 30.25454545454545 M 30.5 30.25454545454545 A 1 1 0 1 1 30.49999950000004 30.253545454712118 Z" stroke="#7cb5ec" stroke-width="1"></path><text x="3" style="font-size:11px;font-weight:bold;" y="14">LIST_LUA</text></g><g class="highcharts-label highcharts-point" transform="translate(122,604)"><path fill="#DDAAAA" class="highcharts-label-box" d="M 0.5 0.5 L 58.5 0.5 58.5 19.5 0.5 19.5 Z M 29.75 19.5 L 29.5 30.25454545454545 M 30.5 30.25454545454545 A 1 1 0 1 1 30.49999950000004 30.253545454712118 Z" stroke="#7cb5ec" stroke-width="1"></path><text x="3" style="font-size:11px;font-weight:bold;" y="14">LIST_LUA</text></g></g></g><text x="714" text-anchor="middle" class="highcharts-title" style="color:#333333;font-size:16px;fill:#333333;" y="22"></text><text x="714" text-anchor="middle" class="highcharts-subtitle" style="color:#666666;fill:#666666;" y="24"></text><g class="highcharts-axis-labels highcharts-xaxis-labels "><text x="67.225992425389" style="color:#666666;cursor:default;font-size:11px;fill:#666666;" text-anchor="middle" transform="translate(0,0)" y="710" opacity="1">15:18:30</text><text x="700.31064633088" style="color:#666666;cursor:default;font-size:11px;fill:#666666;" text-anchor="middle" transform="translate(0,0)" y="710" opacity="1">15:19:00</text><text x="172.74010140964" style="color:#666666;cursor:default;font-size:11px;fill:#666666;" text-anchor="middle" transform="translate(0,0)" y="710" opacity="1">15:18:35</text><text x="278.25421039389" style="color:#666666;cursor:default;font-size:11px;fill:#666666;" text-anchor="middle" transform="translate(0,0)" y="710" opacity="1">15:18:40</text><text x="383.76831937813" style="color:#666666;cursor:default;font-size:11px;fill:#666666;" text-anchor="middle" transform="translate(0,0)" y="710" opacity="1">15:18:45</text><text x="489.28242836238" style="color:#666666;cursor:default;font-size:11px;fill:#666666;" text-anchor="middle" transform="translate(0,0)" y="710" opacity="1">15:18:50</text><text x="594.79653734663" style="color:#666666;cursor:default;font-size:11px;fill:#666666;" text-anchor="middle" transform="translate(0,0)" y="710" opacity="1">15:18:55</text><text x="805.82475531513" style="color:#666666;cursor:default;font-size:11px;fill:#666666;" text-anchor="middle" transform="translate(0,0)" y="710" opacity="1">15:19:05</text><text x="911.33886429938" style="color:#666666;cursor:default;font-size:11px;fill:#666666;" text-anchor="middle" transform="translate(0,0)" y="710" opacity="1">15:19:10</text><text x="1016.8529732836" style="color:#666666;cursor:default;font-size:11px;fill:#666666;" text-anchor="middle" transform="translate(0,0)" y="710" opacity="1">15:19:15</text><text x="1122.3670822679" style="color:#666666;cursor:default;font-size:11px;fill:#666666;" text-anchor="middle" transform="translate(0,0)" y="710" opacity="1">15:19:20</text><text x="1227.8811912521" style="color:#666666;cursor:default;font-size:11px;fill:#666666;" text-anchor="middle" transform="translate(0,0)" y="710" opacity="1">15:19:25</text></g><g class="highcharts-axis-labels highcharts-xaxis-labels highcharts-navigator-xaxis"><text x="82.689303187099" style="color:#999999;cursor:default;font-size:11px;fill:#999999;" text-anchor="start" transform="translate(0,0)" y="734" opacity="1">15:15</text><text x="339.99265135195" style="color:#999999;cursor:default;font-size:11px;fill:#999999;" text-anchor="start" transform="translate(0,0)" y="734" opacity="1">15:16</text><text x="597.2959995168" style="color:#999999;cursor:default;font-size:11px;fill:#999999;" text-anchor="start" transform="translate(0,0)" y="734" opacity="1">15:17</text><text x="854.59934768165" style="color:#999999;cursor:default;font-size:11px;fill:#999999;" text-anchor="start" transform="translate(0,0)" y="734" opacity="1">15:18</text><text x="1111.9026958465" style="color:#999999;cursor:default;font-size:11px;fill:#999999;" text-anchor="start" transform="translate(0,0)" y="734" opacity="1">15:19</text></g><g class="highcharts-axis-labels highcharts-yaxis-labels "><text x="37" style="color:#aa4643;cursor:default;font-size:11px;fill:#aa4643;" text-anchor="start" transform="translate(0,0)" y="689" opacity="1">0%</text><text x="37" style="color:#aa4643;cursor:default;font-size:11px;fill:#aa4643;" text-anchor="start" transform="translate(0,0)" y="630" opacity="1">10%</text><text x="37" style="color:#aa4643;cursor:default;font-size:11px;fill:#aa4643;" text-anchor="start" transform="translate(0,0)" y="572" opacity="1">20%</text><text x="37" style="color:#aa4643;cursor:default;font-size:11px;fill:#aa4643;" text-anchor="start" transform="translate(0,0)" y="513" opacity="1">30%</text><text x="37" style="color:#aa4643;cursor:default;font-size:11px;fill:#aa4643;" text-anchor="start" transform="translate(0,0)" y="454" opacity="1">40%</text><text x="37" style="color:#aa4643;cursor:default;font-size:11px;fill:#aa4643;" text-anchor="start" transform="translate(0,0)" y="395" opacity="1">50%</text><text x="37" style="color:#aa4643;cursor:default;font-size:11px;fill:#aa4643;" text-anchor="start" transform="translate(0,0)" y="337" opacity="1">60%</text><text x="37" style="color:#aa4643;cursor:default;font-size:11px;fill:#aa4643;" text-anchor="start" transform="translate(0,0)" y="278" opacity="1">70%</text><text x="37" style="color:#aa4643;cursor:default;font-size:11px;fill:#aa4643;" text-anchor="start" transform="translate(0,0)" y="219" opacity="1">80%</text><text x="37" style="color:#aa4643;cursor:default;font-size:11px;fill:#aa4643;" text-anchor="start" transform="translate(0,0)" y="160" opacity="1">90%</text><text x="37" style="color:#aa4643;cursor:default;font-size:11px;fill:#aa4643;" text-anchor="start" transform="translate(0,0)" y="102" opacity="1">100%</text><text x="0" style="color:#aa4643;cursor:default;font-size:11px;fill:#aa4643;" text-anchor="start" transform="translate(0,0)" y="-9999">110%</text></g><g class="highcharts-axis-labels highcharts-yaxis-labels "><text x="1311" style="color:#f28507;cursor:default;font-size:11px;fill:#f28507;" text-anchor="end" transform="translate(0,0)" y="689" opacity="1"><tspan>0 MB</tspan></text><text x="1311" style="color:#f28507;cursor:default;font-size:11px;fill:#f28507;" text-anchor="end" transform="translate(0,0)" y="643" opacity="1"><tspan>100 MB</tspan></text><text x="1311" style="color:#f28507;cursor:default;font-size:11px;fill:#f28507;" text-anchor="end" transform="translate(0,0)" y="597" opacity="1"><tspan>200 MB</tspan></text><text x="1311" style="color:#f28507;cursor:default;font-size:11px;fill:#f28507;" text-anchor="end" transform="translate(0,0)" y="551" opacity="1"><tspan>300 MB</tspan></text><text x="1311" style="color:#f28507;cursor:default;font-size:11px;fill:#f28507;" text-anchor="end" transform="translate(0,0)" y="504" opacity="1"><tspan>400 MB</tspan></text><text x="1311" style="color:#f28507;cursor:default;font-size:11px;fill:#f28507;" text-anchor="end" transform="translate(0,0)" y="458" opacity="1"><tspan>500 MB</tspan></text><text x="1311" style="color:#f28507;cursor:default;font-size:11px;fill:#f28507;" text-anchor="end" transform="translate(0,0)" y="412" opacity="1"><tspan>600 MB</tspan></text><text x="1311" style="color:#f28507;cursor:default;font-size:11px;fill:#f28507;" text-anchor="end" transform="translate(0,0)" y="366" opacity="1"><tspan>700 MB</tspan></text><text x="1311" style="color:#f28507;cursor:default;font-size:11px;fill:#f28507;" text-anchor="end" transform="translate(0,0)" y="320" opacity="1"><tspan>800 MB</tspan></text><text x="1311" style="color:#f28507;cursor:default;font-size:11px;fill:#f28507;" text-anchor="end" transform="translate(0,0)" y="274" opacity="1"><tspan>900 MB</tspan></text><text x="1311" style="color:#f28507;cursor:default;font-size:11px;fill:#f28507;" text-anchor="end" transform="translate(0,0)" y="228" opacity="1"><tspan>1000 MB</tspan></text><text x="1311" style="color:#f28507;cursor:default;font-size:11px;fill:#f28507;" text-anchor="end" transform="translate(0,0)" y="181" opacity="1"><tspan>1100 MB</tspan></text><text x="1311" style="color:#f28507;cursor:default;font-size:11px;fill:#f28507;" text-anchor="end" transform="translate(0,0)" y="135" opacity="1"><tspan>1200 MB</tspan></text><text x="1311" style="color:#f28507;cursor:default;font-size:11px;fill:#f28507;" text-anchor="end" transform="translate(0,0)" y="89" opacity="1"><tspan>1300 MB</tspan></text><text x="0" style="color:#f28507;cursor:default;font-size:11px;fill:#f28507;" text-anchor="end" transform="translate(0,0)" y="-9999"><tspan>1400 MB</tspan></text></g><g class="highcharts-axis-labels highcharts-yaxis-labels "><text x="1391" style="color:#4572a7;cursor:default;font-size:11px;fill:#4572a7;" text-anchor="end" transform="translate(0,0)" y="689" opacity="1"><tspan>0 MB</tspan></text><text x="1391" style="color:#4572a7;cursor:default;font-size:11px;fill:#4572a7;" text-anchor="end" transform="translate(0,0)" y="639" opacity="1"><tspan>25 MB</tspan></text><text x="1391" style="color:#4572a7;cursor:default;font-size:11px;fill:#4572a7;" text-anchor="end" transform="translate(0,0)" y="590" opacity="1"><tspan>50 MB</tspan></text><text x="1391" style="color:#4572a7;cursor:default;font-size:11px;fill:#4572a7;" text-anchor="end" transform="translate(0,0)" y="540" opacity="1"><tspan>75 MB</tspan></text><text x="1391" style="color:#4572a7;cursor:default;font-size:11px;fill:#4572a7;" text-anchor="end" transform="translate(0,0)" y="490" opacity="1"><tspan>100 MB</tspan></text><text x="1391" style="color:#4572a7;cursor:default;font-size:11px;fill:#4572a7;" text-anchor="end" transform="translate(0,0)" y="441" opacity="1"><tspan>125 MB</tspan></text><text x="1391" style="color:#4572a7;cursor:default;font-size:11px;fill:#4572a7;" text-anchor="end" transform="translate(0,0)" y="391" opacity="1"><tspan>150 MB</tspan></text><text x="1391" style="color:#4572a7;cursor:default;font-size:11px;fill:#4572a7;" text-anchor="end" transform="translate(0,0)" y="341" opacity="1"><tspan>175 MB</tspan></text><text x="1391" style="color:#4572a7;cursor:default;font-size:11px;fill:#4572a7;" text-anchor="end" transform="translate(0,0)" y="291" opacity="1"><tspan>200 MB</tspan></text><text x="1391" style="color:#4572a7;cursor:default;font-size:11px;fill:#4572a7;" text-anchor="end" transform="translate(0,0)" y="242" opacity="1"><tspan>225 MB</tspan></text><text x="1391" style="color:#4572a7;cursor:default;font-size:11px;fill:#4572a7;" text-anchor="end" transform="translate(0,0)" y="192" opacity="1"><tspan>250 MB</tspan></text><text x="1391" style="color:#4572a7;cursor:default;font-size:11px;fill:#4572a7;" text-anchor="end" transform="translate(0,0)" y="142" opacity="1"><tspan>275 MB</tspan></text><text x="1391" style="color:#4572a7;cursor:default;font-size:11px;fill:#4572a7;" text-anchor="end" transform="translate(0,0)" y="93" opacity="1"><tspan>300 MB</tspan></text><text x="0" style="color:#4572a7;cursor:default;font-size:11px;fill:#4572a7;" text-anchor="end" transform="translate(0,0)" y="-9999"><tspan>325 MB</tspan></text></g><g class="highcharts-axis-labels highcharts-yaxis-labels highcharts-navigator-yaxis"></g><g class="highcharts-range-selector-group" transform="translate(0,0)"><g class="highcharts-range-selector-buttons" transform="translate(0,10)"><text x="35" y="15" style="color:silver;font-weight:bold;fill:silver;">Zoom</text><g class="highcharts-button highcharts-button-normal" style="cursor:pointer;" states="[object Object]" transform="translate(75,0)"><rect fill="none" class=" highcharts-button-box" x="0" y="0" width="32" height="22" rx="4" ry="4"></rect><text x="6.6015625" style="font-weight:bold;color:#ffaf38;fill:#ffaf38;" y="14">1M</text></g><g class="highcharts-button highcharts-button-normal" style="cursor:pointer;" states="[object Object]" transform="translate(112,0)"><rect fill="none" class=" highcharts-button-box" x="0" y="0" width="32" height="22" rx="4" ry="4"></rect><text x="2.640625" style="font-weight:bold;color:#ffaf38;fill:#ffaf38;" y="14">10M</text></g><g class="highcharts-button highcharts-button-normal" style="cursor:pointer;" states="[object Object]" transform="translate(149,0)"><rect fill="none" class=" highcharts-button-box" x="0" y="0" width="32" height="22" rx="4" ry="4"></rect><text x="7.6796875" style="font-weight:bold;color:#ffaf38;fill:#ffaf38;" y="14">All</text></g></g></g><g class="highcharts-legend" transform="translate(230,7)"><rect fill="#FFFFFF" class="highcharts-legend-box" rx="0" ry="0" x="0" y="0" width="755" height="26" visibility="visible"></rect><g><g><g class="highcharts-legend-item highcharts-areaspline-series highcharts-color-undefined highcharts-series-0" transform="translate(8,3)"><text x="21" style="color:#333333;font-size:12px;font-weight:bold;cursor:pointer;fill:#333333;" text-anchor="start" y="15"><tspan>CPU</tspan></text><rect x="2" y="4" width="12" height="12" fill="rgb(170,70,67)" rx="6" ry="6" class="highcharts-point"></rect></g><g class="highcharts-legend-item highcharts-spline-series highcharts-color-undefined highcharts-series-1" transform="translate(73.734375,3)"><path fill="none" d="M 0 11 L 16 11" class="highcharts-graph" stroke="rgb(242,133,7)" stroke-opacity="0.6" stroke-width="2"></path><text x="21" y="15" style="color:#333333;font-size:12px;font-weight:bold;cursor:pointer;fill:#333333;" text-anchor="start"><tspan>Res Memory</tspan></text></g><g class="highcharts-legend-item highcharts-line-series highcharts-color-undefined highcharts-series-2" transform="translate(190.453125,3)"><path fill="none" d="M 0 11 L 16 11" class="highcharts-graph" stroke="rgb(242,133,7)" stroke-opacity="0.6" stroke-width="2"></path><text x="21" y="15" style="color:#333333;font-size:12px;font-weight:bold;cursor:pointer;fill:#333333;" text-anchor="start"><tspan>Virt Memory</tspan></text></g><g class="highcharts-legend-item highcharts-flags-series highcharts-color-0 highcharts-series-3" transform="translate(307.6875,3)"><text x="21" y="15" style="color:#333333;font-size:12px;font-weight:bold;cursor:pointer;fill:#333333;" text-anchor="start"><tspan>Tags</tspan></text><rect x="2" y="4" width="12" height="12" fill="#7cb5ec" rx="6" ry="6" class="highcharts-point"></rect></g><g class="highcharts-legend-item highcharts-column-series highcharts-color-undefined highcharts-series-4" transform="translate(378.71875,3)"><text x="21" y="15" style="color:#333333;font-size:12px;font-weight:bold;cursor:pointer;fill:#333333;" text-anchor="start"><tspan>Work</tspan></text><rect x="2" y="4" width="12" height="12" fill="url(#highcharts-axw5jz7-67)" rx="6" ry="6" class="highcharts-point"></rect></g><g class="highcharts-legend-item highcharts-column-series highcharts-color-undefined highcharts-series-5" transform="translate(451.265625,3)"><text x="21" y="15" style="color:#333333;font-size:12px;font-weight:bold;cursor:pointer;fill:#333333;" text-anchor="start"><tspan>Util</tspan></text><rect x="2" y="4" width="12" height="12" fill="url(#highcharts-axw5jz7-68)" rx="6" ry="6" class="highcharts-point"></rect></g><g class="highcharts-legend-item highcharts-column-series highcharts-color-undefined highcharts-series-6" transform="translate(513.765625,3)"><text x="21" y="15" style="color:#333333;font-size:12px;font-weight:bold;cursor:pointer;fill:#333333;" text-anchor="start"><tspan>MBytes Read</tspan></text><rect x="2" y="4" width="12" height="12" fill="url(#highcharts-axw5jz7-69)" rx="6" ry="6" class="highcharts-point"></rect></g><g class="highcharts-legend-item highcharts-column-series highcharts-color-undefined highcharts-series-7" transform="translate(633.15625,3)"><text x="21" y="15" style="color:#333333;font-size:12px;font-weight:bold;cursor:pointer;fill:#333333;" text-anchor="start"><tspan>MBytes Written</tspan></text><rect x="2" y="4" width="12" height="12" fill="url(#highcharts-axw5jz7-70)" rx="6" ry="6" class="highcharts-point"></rect></g></g></g></g><g class="highcharts-navigator" visibility="visible"><rect fill="rgb(255, 255, 255)" fill-opacity=" 0.5" class="highcharts-navigator-mask-outside" x="35" y="714" width="949" height="24"></rect><rect fill="rgb(0,0,0)" fill-opacity="0" class="highcharts-navigator-mask-inside" style="cursor:ew-resize;" x="984" y="714" width="239" height="24"></rect><rect fill="rgb(255, 255, 255)" fill-opacity=" 0.5" class="highcharts-navigator-mask-outside" x="1223" y="714" width="90" height="24"></rect><path fill="none" class="highcharts-navigator-outline" stroke="#cccccc" stroke-width="1" d="M 35 714.5 L 983.5 714.5 L 983.5 738.5 L 1222.5 738.5 L 1222.5 714.5 L 1313 714.5"></path><path fill="#f2f2f2" d="M -4.5 0.5 L 3.5 0.5 L 3.5 15.5 L -4.5 15.5 L -4.5 0.5 M -1.5 4 L -1.5 12 M 0.5 4 L 0.5 12" class="highcharts-navigator-handle highcharts-navigator-handle-right" stroke="#999999" stroke-width="1" style="cursor:ew-resize;" transform="translate(1223,718)"></path><path fill="#f2f2f2" d="M -4.5 0.5 L 3.5 0.5 L 3.5 15.5 L -4.5 15.5 L -4.5 0.5 M -1.5 4 L -1.5 12 M 0.5 4 L 0.5 12" class="highcharts-navigator-handle highcharts-navigator-handle-left" stroke="#999999" stroke-width="1" style="cursor:ew-resize;" transform="translate(984,718)"></path></g></svg>